<svg width="24" height="24" viewBox="0 0 24 24" fill="none" xmlns="http://www.w3.org/2000/svg">
<path d="M10.4615 0.5C10.4615 0.223858 10.6854 0 10.9615 0H13.0385C13.3146 0 13.5385 0.223858 13.5385 0.5V9.96154C13.5385 10.2377 13.7623 10.4615 14.0385 10.4615H23.5C23.7761 10.4615 24 10.6854 24 10.9615V13.0385C24 13.3146 23.7761 13.5385 23.5 13.5385H14.0385C13.7623 13.5385 13.5385 13.7623 13.5385 14.0385V23.5C13.5385 23.7761 13.3146 24 13.0385 24H10.9615C10.6854 24 10.4615 23.7761 10.4615 23.5V14.0385C10.4615 13.7623 10.2377 13.5385 9.96154 13.5385H0.5C0.223858 13.5385 0 13.3146 0 13.0385V10.9615C0 10.6854 0.223858 10.4615 0.5 10.4615H9.96154C10.2377 10.4615 10.4615 10.2377 10.4615 9.96154V0.5Z" fill="#F8F9FA"/>
</svg>
