<svg width="16" height="16" viewBox="0 0 16 16" fill="none" xmlns="http://www.w3.org/2000/svg">
<path d="M6.97436 0.499999C6.97436 0.223857 7.19822 0 7.47436 0H8.52564C8.80178 0 9.02564 0.223858 9.02564 0.5V6.47436C9.02564 6.7505 9.2495 6.97436 9.52564 6.97436H15.5C15.7761 6.97436 16 7.19822 16 7.47436V8.52564C16 8.80178 15.7761 9.02564 15.5 9.02564H9.52564C9.2495 9.02564 9.02564 9.2495 9.02564 9.52564V15.5C9.02564 15.7761 8.80178 16 8.52564 16H7.47436C7.19822 16 6.97436 15.7761 6.97436 15.5V9.52564C6.97436 9.2495 6.7505 9.02564 6.47436 9.02564H0.5C0.223858 9.02564 0 8.80178 0 8.52564V7.47436C0 7.19822 0.223858 6.97436 0.5 6.97436H6.47436C6.7505 6.97436 6.97436 6.7505 6.97436 6.47436V0.499999Z" fill="#343A40"/>
</svg>
