<svg width="56" height="68" viewBox="0 0 56 68" fill="none" xmlns="http://www.w3.org/2000/svg">
<path d="M21.2412 57.1847H9.92286M45.0098 33.1006C42.7461 27.825 38.2188 26.1238 36.238 25.9326H11.6206C3.92416 27.3089 2.00001 34.343 2 37.688V57.1847H9.92286M9.92286 40.2685V57.1847M26.9004 42.849L30.9993 38.4612L35.2738 40.2685L37.1057 36.2956H42.4997L44.3316 40.833L49.0131 39.6987L52.7787 44.5455L49.9291 48.9799L54 52.383L52.7787 57.1847L47.1812 58.2611V63.211L42.4997 65.2735L38.5305 61.8704L35.2738 64.861L29.8798 61.8704L30.3887 57.1847L25.8089 55.7861L24.6894 50.2174L28.9395 46.9813L26.9004 42.849Z" stroke="#176D76" stroke-width="3"/>
<path d="M33.5198 11.4518C33.5198 16.8239 29.2537 21.1302 24.0506 21.1302C18.8475 21.1302 14.5814 16.8239 14.5814 11.4518C14.5814 6.07975 18.8475 1.77344 24.0506 1.77344C29.2537 1.77344 33.5198 6.07975 33.5198 11.4518ZM44.5452 50.8061C44.5452 53.772 42.1932 56.1278 39.3512 56.1278C36.5092 56.1278 34.1572 53.772 34.1572 50.8061C34.1572 47.8402 36.5092 45.4844 39.3512 45.4844C42.1932 45.4844 44.5452 47.8402 44.5452 50.8061Z" stroke="#176D76" stroke-width="3"/>
</svg>
