<svg width="55" height="68" viewBox="0 0 55 68" fill="none" xmlns="http://www.w3.org/2000/svg">
<path d="M44.0098 33.8271C41.7461 28.5515 37.2188 26.8503 35.238 26.6591H10.6206C2.92416 28.0353 1.00001 35.0694 1 38.4145V57.9112H8.92286M20.2412 57.9112H8.92286M8.92286 57.9112V40.995M37.5305 62.5969L34.2738 65.5875L28.8798 62.5969L29.3887 57.9112L24.8089 56.5126L23.6894 50.9438L27.9395 47.7078L25.9004 43.5755L29.9993 39.1876L34.2738 40.995L36.1057 37.022H41.4997L43.3316 41.5595L48.0131 40.4251L51.7787 45.272L48.9291 49.7063L53 53.1094L51.7787 57.9112L46.1812 58.9875V63.9375L41.4997 66L37.5547 62.5969M38.3048 58.3542C34.6292 58.3287 31.6572 55.2844 31.6572 51.5326C31.6572 47.7651 34.6542 44.711 38.3512 44.711C42.0482 44.711 45.0453 47.7651 45.0453 51.5326C45.0453 55.2844 42.0733 58.3288 38.3976 58.3542M23.0547 23.3562C29.0606 23.2942 34.0198 18.3134 34.0198 12.1784C34.0198 6.00473 29.1088 1 23.0506 1C16.9925 1 12.0814 6.00473 12.0814 12.1784C12.0814 18.3076 17.0372 23.2849 23.0352 23.3562" stroke="#F8F9FA" stroke-width="2"/>
</svg>
