<svg width="19" height="19" viewBox="0 0 19 19" fill="none" xmlns="http://www.w3.org/2000/svg">
<path d="M1.13453 3.12898C0.939264 2.93371 0.939264 2.61713 1.13453 2.42187L2.42182 1.13457C2.61709 0.939311 2.93367 0.939311 3.12893 1.13457L9.2028 7.20844C9.39806 7.4037 9.71464 7.4037 9.9099 7.20844L15.9838 1.13457C16.179 0.939311 16.4956 0.939311 16.6909 1.13457L17.9782 2.42187C18.1734 2.61713 18.1734 2.93371 17.9782 3.12898L11.9043 9.20284C11.709 9.39811 11.709 9.71469 11.9043 9.90995L17.9782 15.9838C18.1734 16.1791 18.1734 16.4957 17.9782 16.6909L16.6909 17.9782C16.4956 18.1735 16.179 18.1735 15.9838 17.9782L9.9099 11.9044C9.71464 11.7091 9.39806 11.7091 9.2028 11.9044L3.12893 17.9782C2.93367 18.1735 2.61709 18.1735 2.42182 17.9782L1.13453 16.6909C0.939264 16.4957 0.939264 16.1791 1.13453 15.9838L7.20839 9.90995C7.40365 9.71469 7.40365 9.39811 7.20839 9.20284L1.13453 3.12898Z" fill="#F1F6F9"/>
</svg>
