<svg width="17" height="17" viewBox="0 0 17 17" fill="none" xmlns="http://www.w3.org/2000/svg">
<path fill-rule="evenodd" clip-rule="evenodd" d="M0.707144 15.4928C0.316616 15.1023 0.316618 14.4691 0.707147 14.0786L5.57857 9.20726C5.9691 8.81673 5.9691 8.18356 5.57857 7.79304L0.707077 2.92156C0.316564 2.53105 0.316549 1.89791 0.707044 1.50738L1.50721 0.707139C1.89773 0.316585 2.53092 0.31657 2.92146 0.707106L7.7929 5.57854C8.18342 5.96906 8.81658 5.96906 9.20711 5.57855L14.0786 0.707147C14.4692 0.316633 15.1023 0.316637 15.4928 0.707156L16.293 1.50728C16.6835 1.89781 16.6835 2.53098 16.293 2.9215L11.4215 7.79286C11.0309 8.18338 11.0309 8.81656 11.4215 9.20708L16.293 14.0786C16.6835 14.4691 16.6835 15.1022 16.293 15.4927L15.4928 16.293C15.1023 16.6835 14.4691 16.6835 14.0786 16.293L9.20713 11.4216C8.81661 11.0311 8.18345 11.0311 7.79292 11.4216L2.92148 16.293C2.53096 16.6835 1.8978 16.6835 1.50727 16.293L0.707144 15.4928Z" fill="#0F464B"/>
</svg>
