<svg width="22" height="23" viewBox="0 0 22 23" fill="none" xmlns="http://www.w3.org/2000/svg">
<path fill-rule="evenodd" clip-rule="evenodd" d="M22 19.7302C22 21.1766 20.8274 22.3492 19.381 22.3492H2.61905C1.17259 22.3492 0 21.1766 0 19.7302V2.61905C0 1.17259 1.17259 0 2.61905 0H19.381C20.8274 0 22 1.17259 22 2.61905V19.7302ZM2.96825 2.09524C2.4861 2.09524 2.09524 2.4861 2.09524 2.96825V19.381C2.09524 19.7565 2.33234 20.0766 2.66501 20.1999L14.3093 8.55556C15.1905 7.6744 15.762 7.64556 16.672 8.55556L19.9048 11.7883V2.96825C19.9048 2.4861 19.5139 2.09524 19.0317 2.09524H2.96825ZM19.0317 20.254C19.5139 20.254 19.9048 19.8631 19.9048 19.381V14.7514L16.328 11.1746C15.6296 10.4762 15.1905 10.6375 14.6534 11.1746L5.57402 20.254H19.0317Z" fill="#343A40"/>
<path fill-rule="evenodd" clip-rule="evenodd" d="M9.77778 7.33333C9.77778 8.87622 8.52702 10.127 6.98413 10.127C5.44124 10.127 4.19048 8.87622 4.19048 7.33333C4.19048 5.79044 5.44124 4.53968 6.98413 4.53968C8.52702 4.53968 9.77778 5.79044 9.77778 7.33333ZM6.98413 8.03175C7.36985 8.03175 7.68254 7.71906 7.68254 7.33333C7.68254 6.94761 7.36985 6.63492 6.98413 6.63492C6.5984 6.63492 6.28571 6.94761 6.28571 7.33333C6.28571 7.71906 6.5984 8.03175 6.98413 8.03175Z" fill="#343A40"/>
</svg>
