<svg width="22" height="23" viewBox="0 0 22 23" fill="none" xmlns="http://www.w3.org/2000/svg">
<path fill-rule="evenodd" clip-rule="evenodd" d="M1.92982 0C1.15789 0 0 0.385965 0 1.92982V20.4561C0 22 1.15789 22.386 1.92982 22.386H20.0702C20.8421 22.386 22 22 22 20.4561V7.33333C22 5.78947 21.1893 4.88512 20.8421 4.53792L17.4621 1.15789C17.0761 0.77193 16.0561 0 13.8947 0H1.92982ZM7.33333 14.5088C7.33333 13.9565 7.78105 13.5088 8.33333 13.5088H13.6667C14.219 13.5088 14.6667 13.9565 14.6667 14.5088V19.0702C14.6667 19.6225 14.219 20.0702 13.6667 20.0702H8.33333C7.78105 20.0702 7.33333 19.6225 7.33333 19.0702V14.5088ZM5.01754 6.33333C5.01754 6.88562 5.46526 7.33333 6.01755 7.33333H13.6667C14.219 7.33333 14.6667 6.88562 14.6667 6.33333V2.79541C14.6667 2.53052 14.8814 2.31579 15.1463 2.31579C15.2735 2.31579 15.3955 2.36632 15.4854 2.45627L19.3913 6.36215C19.5789 6.54968 19.6842 6.80404 19.6842 7.06925V19.0702C19.6842 19.6225 19.2365 20.0702 18.6842 20.0702H17.9825C17.4302 20.0702 16.9825 19.6225 16.9825 19.0702V13.1228C16.9825 11.5789 15.8246 11.193 15.0526 11.193H6.94737C6.17544 11.193 5.01754 11.5789 5.01754 13.1228V19.0702C5.01754 19.6225 4.56983 20.0702 4.01754 20.0702H3.31579C2.7635 20.0702 2.31579 19.6225 2.31579 19.0702V3.31579C2.31579 2.7635 2.7635 2.31579 3.31579 2.31579H4.01754C4.56983 2.31579 5.01754 2.7635 5.01754 3.31579V6.33333ZM10.6491 5.01754C10.0968 5.01754 9.64912 4.56983 9.64912 4.01754V3.31579C9.64912 2.7635 10.0968 2.31579 10.6491 2.31579H11.3509C11.9032 2.31579 12.3509 2.76351 12.3509 3.31579V4.01754C12.3509 4.56983 11.9032 5.01754 11.3509 5.01754H10.6491Z" fill="#343A40"/>
</svg>
