<svg width="47" height="61" viewBox="0 0 47 61" fill="none" xmlns="http://www.w3.org/2000/svg">
<path d="M30.9325 1.5H5.23289C2.08847 1.98376 1.10079 4.32192 1 5.43053C1.20157 21.2535 1.48376 36.5029 1 41.8242C1 46.7387 3.62036 48.0728 5.23289 47.8712H25.3329M30.9325 1.5L45.4453 18.4316M30.9325 1.5V15.6289C30.8626 16.5631 31.3417 18.4316 33.8183 18.4316H45.4453M45.4453 18.4316V41.8242C45.5461 43.8399 44.9011 47.8712 41.5148 47.8712H35.5065M35.5065 47.8712V57.6996L30.6334 53.3395L25.3329 58.298V47.8712M35.5065 47.8712V43.0805M25.3329 47.8712C25.3329 47.8712 25.3329 45.1183 25.3329 43.0805M7.53428 11.4818H24.356M7.53428 18.9582H24.356M7.5343 26.9999H38.8999M7.5343 34.4999H19.6281" stroke="#F8F9FA" stroke-width="2"/>
<circle cx="30.4951" cy="37.5712" r="7.34759" stroke="#F8F9FA" stroke-width="2"/>
</svg>
