<svg width="47" height="61" viewBox="0 0 47 61" fill="none" xmlns="http://www.w3.org/2000/svg">
<path d="M30.9325 1H5.23289C2.08847 1.48376 1.10079 3.82192 1 4.93053C1.20157 20.7535 1.48376 36.0029 1 41.3242C1 46.2387 3.62036 47.5728 5.23289 47.3712H25.3329M30.9325 1L45.4453 17.9316M30.9325 1V15.1289C30.8626 16.0631 31.3417 17.9316 33.8183 17.9316H45.4453M45.4453 17.9316V41.3242C45.5461 43.3399 44.9011 47.3712 41.5148 47.3712H35.5065M35.5065 47.3712V57.1996L30.6334 52.8395L25.3329 57.798V47.3712M35.5065 47.3712V42.5805M25.3329 47.3712C25.3329 47.3712 25.3329 44.6183 25.3329 42.5805M7.53428 10.9818H24.356M7.53428 18.4582H24.356M7.5343 26.4999H38.8999M7.5343 33.9999H19.6281" stroke="#176D76" stroke-width="2"/>
<circle cx="30.4951" cy="37.0712" r="7.34759" stroke="#176D76" stroke-width="2"/>
</svg>
