<svg width="69" height="57" viewBox="0 0 69 57" fill="none" xmlns="http://www.w3.org/2000/svg">
<path d="M2.5 57V39C2.66667 37.3333 4.2 33.8 9 33C14 32.5 25.3 32.4 30.5 36L37 27C37.5 26.3333 39.1 25.2 41.5 26C43.9 26.8 43.5 29.3333 43 30.5L34.5 43C34 43.5 32.7 44.4 31.5 44C30.3 43.6 24.6667 41.8333 22 41V57M28 10H44.5M49.5 10H59M28 17.5H59M26.5 50H63C64.5 50 67.5 50.6 67.5 53V55.5H26.5M5 1.5H65V50M22 19C22 24.5228 17.5228 29 12 29C6.47715 29 2 24.5228 2 19C2 13.4772 6.47715 9 12 9C17.5228 9 22 13.4772 22 19Z" stroke="#176D76" stroke-width="3"/>
</svg>
