<svg width="69" height="58" viewBox="0 0 69 58" fill="none" xmlns="http://www.w3.org/2000/svg">
<path d="M2.5 57.5V39.5C2.66667 37.8333 4.2 34.3 9 33.5C14 33 25.3 32.9 30.5 36.5L37 27.5C37.5 26.8333 39.1 25.7 41.5 26.5C43.9 27.3 43.5 29.8333 43 31L34.5 43.5C34 44 32.7 44.9 31.5 44.5C30.3 44.1 24.6667 42.3333 22 41.5V57.5M28 10.5H44.5M49.5 10.5H59M28 18H59M26.5 50.5H63C64.5 50.5 67.5 51.1 67.5 53.5V56H26.5M5 2H65V50.5M22 19.5C22 25.0228 17.5228 29.5 12 29.5C6.47715 29.5 2 25.0228 2 19.5C2 13.9772 6.47715 9.5 12 9.5C17.5228 9.5 22 13.9772 22 19.5Z" stroke="#F8F9FA" stroke-width="3"/>
</svg>
