<svg width="16" height="18" viewBox="0 0 16 18" fill="none" xmlns="http://www.w3.org/2000/svg">
<path fill-rule="evenodd" clip-rule="evenodd" d="M15.5 3.31034C15.7761 3.31034 16 3.5342 16 3.81034V4.46552C16 4.74166 15.7761 4.96552 15.5 4.96552H14.8448C14.5687 4.96552 14.3448 5.18937 14.3448 5.46552V16C14.3448 16.8828 13.931 17.3793 12.9655 17.3793H3.31034C2.34483 17.3793 1.93103 16.8828 1.93103 16V5.46552C1.93103 5.18937 1.70718 4.96552 1.43103 4.96552H0.5C0.223858 4.96552 0 4.74166 0 4.46552V3.81034C0 3.5342 0.223858 3.31034 0.5 3.31034H3.36207C3.63821 3.31034 3.86207 3.08649 3.86207 2.81034V1.37931C3.86207 0.496552 4.27586 0 5.24138 0H11.0345C12 0 12.4138 0.496552 12.4138 1.37931V2.81034C12.4138 3.08649 12.6377 3.31034 12.9138 3.31034H15.5ZM5.51724 2.15517C5.51724 1.87903 5.7411 1.65517 6.01724 1.65517H10.2586C10.5348 1.65517 10.7586 1.87903 10.7586 2.15517V2.81035C10.7586 3.08649 10.5348 3.31034 10.2586 3.31034H6.01724C5.7411 3.31034 5.51724 3.08649 5.51724 2.81035V2.15517ZM4.08621 15.7241C3.81006 15.7241 3.58621 15.5003 3.58621 15.2241V5.46552C3.58621 5.18937 3.81006 4.96552 4.08621 4.96552H12.1897C12.4658 4.96552 12.6897 5.18938 12.6897 5.46552V15.2241C12.6897 15.5003 12.4658 15.7241 12.1897 15.7241H4.08621Z" fill="white"/>
<path d="M5.51724 7.39655C5.51724 7.12041 5.7411 6.89655 6.01724 6.89655H6.67241C6.94856 6.89655 7.17241 7.12041 7.17241 7.39655V13.2931C7.17241 13.5692 6.94856 13.7931 6.67241 13.7931H6.01724C5.7411 13.7931 5.51724 13.5692 5.51724 13.2931V7.39655Z" fill="white"/>
<path d="M9.10345 7.39655C9.10345 7.12041 9.32731 6.89655 9.60345 6.89655H10.2586C10.5348 6.89655 10.7586 7.12041 10.7586 7.39655V13.2931C10.7586 13.5692 10.5348 13.7931 10.2586 13.7931H9.60345C9.32731 13.7931 9.10345 13.5692 9.10345 13.2931V7.39655Z" fill="white"/>
</svg>
