<svg width="38" height="33" viewBox="0 0 38 33" fill="none" xmlns="http://www.w3.org/2000/svg">
<path fill-rule="evenodd" clip-rule="evenodd" d="M19.6506 2.5L35.2391 29.5C35.624 30.1667 35.1428 31 34.373 31H3.19613C2.42633 31 1.9452 30.1667 2.3301 29.5L17.9186 2.5C18.3035 1.83333 19.2657 1.83333 19.6506 2.5ZM16.1865 1.5C17.3412 -0.5 20.228 -0.499999 21.3827 1.5L36.9711 28.5C38.1258 30.5 36.6824 33 34.373 33H3.19613C0.886724 33 -0.556651 30.5 0.598049 28.5L16.1865 1.5ZM19.9546 21.96L20.2666 10.32H17.3626L17.6746 21.96H19.9546ZM17.6506 26.664C17.9866 27 18.4026 27.168 18.8986 27.168C19.3786 27.168 19.7866 27 20.1226 26.664C20.4586 26.328 20.6266 25.912 20.6266 25.416C20.6266 24.92 20.4586 24.504 20.1226 24.168C19.7866 23.832 19.3786 23.664 18.8986 23.664C18.4026 23.664 17.9866 23.832 17.6506 24.168C17.3146 24.504 17.1466 24.92 17.1466 25.416C17.1466 25.912 17.3146 26.328 17.6506 26.664Z" fill="#A55E03"/>
</svg>
