<svg width="426" height="357" viewBox="0 0 426 357" fill="none" xmlns="http://www.w3.org/2000/svg">
<path d="M6.54443 324.641C6.54443 323.516 6.73193 322.47 7.10693 321.501C7.48193 320.532 7.88818 319.626 8.32568 318.782C8.38818 318.657 8.48193 318.47 8.60693 318.22C8.76318 317.938 9.02881 317.376 9.40381 316.532C9.77881 315.657 10.2944 314.36 10.9507 312.641C11.6382 310.923 12.5444 308.532 13.6694 305.47C13.6382 305.095 13.6069 304.735 13.5757 304.391C13.5757 304.048 13.5757 303.72 13.5757 303.407C13.5757 302.126 13.7788 301.048 14.1851 300.173C14.6226 299.266 15.4351 298.391 16.6226 297.548L28.5288 272.704C28.9976 271.735 29.5132 270.704 30.0757 269.61C30.6382 268.485 31.2632 267.454 31.9507 266.516C32.6694 265.548 33.4507 264.751 34.2944 264.126C35.1694 263.47 36.1226 263.141 37.1538 263.141C37.9351 263.141 38.8101 263.61 39.7788 264.548C40.7476 265.454 41.7319 266.641 42.7319 268.11C43.7632 269.548 44.7788 271.157 45.7788 272.938C46.8101 274.688 47.7476 276.391 48.5913 278.048C49.4663 279.704 50.2319 281.22 50.8882 282.595C51.5444 283.938 52.0132 284.923 52.2944 285.548C53.8569 289.048 55.0288 291.72 55.8101 293.563C56.5913 295.376 57.2007 296.532 57.6382 297.032C59.0757 297.938 60.0757 299.001 60.6382 300.22C61.2007 301.407 61.4819 302.97 61.4819 304.907C62.3569 307.126 63.1382 309.36 63.8257 311.61C64.5444 313.829 65.3257 315.876 66.1694 317.751C66.7944 319.126 67.4351 320.266 68.0913 321.173C68.7476 322.048 69.3257 322.891 69.8257 323.704C70.3569 324.485 70.7788 325.313 71.0913 326.188C71.4351 327.032 71.6069 328.126 71.6069 329.47C71.6069 330.376 71.3882 331.063 70.9507 331.532C70.5132 332.032 69.9819 332.391 69.3569 332.61C68.7632 332.86 68.1538 333.001 67.5288 333.032C66.9038 333.063 66.4038 333.079 66.0288 333.079C65.0601 333.079 64.0913 332.532 63.1226 331.438C62.1538 330.345 61.2476 329.048 60.4038 327.548C59.5601 326.016 58.8101 324.454 58.1538 322.86C57.5288 321.266 57.0757 319.954 56.7944 318.923C56.4507 317.766 56.0913 316.548 55.7163 315.266C55.3726 313.985 55.0288 312.798 54.6851 311.704C54.3413 310.579 53.9819 309.626 53.6069 308.845C53.2632 308.063 52.9194 307.579 52.5757 307.391C52.0757 306.954 51.5132 306.673 50.8882 306.548C50.2632 306.391 49.4351 306.313 48.4038 306.313C46.6226 306.313 44.8257 306.313 43.0132 306.313C41.2007 306.282 39.3413 306.266 37.4351 306.266C35.5288 306.235 33.5444 306.22 31.4819 306.22C29.4507 306.188 27.2944 306.173 25.0132 306.173C24.3882 306.173 23.8726 306.235 23.4663 306.36C23.0913 306.454 22.7319 306.704 22.3882 307.11C22.0757 307.485 21.7476 308.048 21.4038 308.798C21.0913 309.548 20.7163 310.579 20.2788 311.891L16.5288 321.97C16.2476 322.97 15.9819 323.907 15.7319 324.782C15.4819 325.626 15.2476 326.22 15.0288 326.563C14.7476 327.032 14.4351 327.407 14.0913 327.688C13.7788 327.938 13.4507 328.126 13.1069 328.251C12.7632 328.376 12.4038 328.454 12.0288 328.485C11.6538 328.485 11.2788 328.485 10.9038 328.485C9.56006 328.485 8.49756 328.22 7.71631 327.688C6.93506 327.126 6.54443 326.11 6.54443 324.641ZM25.9507 297.641C28.9194 297.673 31.3569 297.704 33.2632 297.735C35.2007 297.766 36.7788 297.798 37.9976 297.829C39.2163 297.86 40.1694 297.891 40.8569 297.923C41.5444 297.923 42.1538 297.923 42.6851 297.923C43.0601 297.923 43.4194 297.923 43.7632 297.923C44.1069 297.891 44.4976 297.876 44.9351 297.876C45.4038 297.845 45.9351 297.813 46.5288 297.782C47.1538 297.751 47.9038 297.704 48.7788 297.641C48.3413 296.391 47.6694 294.813 46.7632 292.907C45.8882 291.001 44.9194 289.032 43.8569 287.001C42.8257 284.938 41.7944 282.938 40.7632 281.001C39.7319 279.063 38.8726 277.423 38.1851 276.079C37.5601 274.891 37.0601 274.298 36.6851 274.298C36.4976 274.298 36.1382 274.766 35.6069 275.704C35.0757 276.61 34.4507 277.782 33.7319 279.22C33.0444 280.657 32.3101 282.282 31.5288 284.095C30.7476 285.876 29.9819 287.626 29.2319 289.345C28.5132 291.063 27.8569 292.673 27.2632 294.173C26.6694 295.641 26.2319 296.798 25.9507 297.641ZM81.8101 323.141C81.7059 322.662 81.6538 322.141 81.6538 321.579C81.6538 321.016 81.6538 320.464 81.6538 319.923C81.6538 318.527 81.6226 317.152 81.5601 315.798C81.4976 314.423 81.4246 313.058 81.3413 311.704C81.2788 310.35 81.2163 308.985 81.1538 307.61C81.1121 306.235 81.1121 304.839 81.1538 303.423L81.4038 287.11C81.4038 285.735 81.6121 284.621 82.0288 283.766C82.4455 282.912 83.1955 282.485 84.2788 282.485C84.6746 282.485 85.0288 282.569 85.3413 282.735C85.6746 282.902 85.9559 283.121 86.1851 283.391C86.4142 283.641 86.5913 283.923 86.7163 284.235C86.8413 284.548 86.9038 284.85 86.9038 285.141V308.079C86.9038 310.35 86.9455 312.631 87.0288 314.923C87.133 317.194 87.3934 319.496 87.8101 321.829C87.8726 322.204 87.9663 322.516 88.0913 322.766C88.2371 322.996 88.3934 323.183 88.5601 323.329C88.7476 323.454 88.9455 323.537 89.1538 323.579C89.3621 323.621 89.5601 323.641 89.7476 323.641C90.0601 323.641 90.3205 323.579 90.5288 323.454C90.7371 323.308 90.8934 323.173 90.9976 323.048C91.1226 322.902 91.2476 322.766 91.3726 322.641C91.5184 322.496 91.6746 322.371 91.8413 322.266C92.008 322.141 92.2059 322.048 92.4351 321.985C92.6851 321.923 92.9767 321.891 93.3101 321.891C93.6851 321.891 94.008 321.975 94.2788 322.141C94.5496 322.287 94.7788 322.485 94.9663 322.735C95.1538 322.985 95.2892 323.266 95.3726 323.579C95.4767 323.891 95.5288 324.204 95.5288 324.516C95.5288 325.162 95.3309 325.756 94.9351 326.298C94.5601 326.819 94.0809 327.266 93.4976 327.641C92.9142 328.016 92.2788 328.308 91.5913 328.516C90.9038 328.725 90.258 328.829 89.6538 328.829C87.4871 328.871 85.7371 328.412 84.4038 327.454C83.0913 326.475 82.2267 325.037 81.8101 323.141ZM103.623 323.141C103.518 322.662 103.466 322.141 103.466 321.579C103.466 321.016 103.466 320.464 103.466 319.923C103.466 318.527 103.435 317.152 103.373 315.798C103.31 314.423 103.237 313.058 103.154 311.704C103.091 310.35 103.029 308.985 102.966 307.61C102.925 306.235 102.925 304.839 102.966 303.423L103.216 287.11C103.216 285.735 103.425 284.621 103.841 283.766C104.258 282.912 105.008 282.485 106.091 282.485C106.487 282.485 106.841 282.569 107.154 282.735C107.487 282.902 107.768 283.121 107.998 283.391C108.227 283.641 108.404 283.923 108.529 284.235C108.654 284.548 108.716 284.85 108.716 285.141V308.079C108.716 310.35 108.758 312.631 108.841 314.923C108.945 317.194 109.206 319.496 109.623 321.829C109.685 322.204 109.779 322.516 109.904 322.766C110.05 322.996 110.206 323.183 110.373 323.329C110.56 323.454 110.758 323.537 110.966 323.579C111.175 323.621 111.373 323.641 111.56 323.641C111.873 323.641 112.133 323.579 112.341 323.454C112.55 323.308 112.706 323.173 112.81 323.048C112.935 322.902 113.06 322.766 113.185 322.641C113.331 322.496 113.487 322.371 113.654 322.266C113.82 322.141 114.018 322.048 114.248 321.985C114.498 321.923 114.789 321.891 115.123 321.891C115.498 321.891 115.82 321.975 116.091 322.141C116.362 322.287 116.591 322.485 116.779 322.735C116.966 322.985 117.102 323.266 117.185 323.579C117.289 323.891 117.341 324.204 117.341 324.516C117.341 325.162 117.143 325.756 116.748 326.298C116.373 326.819 115.893 327.266 115.31 327.641C114.727 328.016 114.091 328.308 113.404 328.516C112.716 328.725 112.07 328.829 111.466 328.829C109.3 328.871 107.55 328.412 106.216 327.454C104.904 326.475 104.039 325.037 103.623 323.141ZM130.498 325.423C130.498 325.235 130.466 324.912 130.404 324.454C130.341 323.975 130.268 323.412 130.185 322.766C130.102 322.121 130.029 321.433 129.966 320.704C129.904 319.954 129.873 319.214 129.873 318.485C129.873 317.902 129.883 317.027 129.904 315.86C129.925 314.694 129.945 313.36 129.966 311.86C129.987 310.339 130.008 308.704 130.029 306.954C130.05 305.183 130.06 303.402 130.06 301.61H129.779L123.935 301.954C123.518 301.954 123.133 301.871 122.779 301.704C122.425 301.537 122.123 301.329 121.873 301.079C121.623 300.808 121.425 300.516 121.279 300.204C121.133 299.871 121.06 299.537 121.06 299.204C121.06 298.808 121.133 298.433 121.279 298.079C121.425 297.704 121.623 297.381 121.873 297.11C122.143 296.819 122.456 296.6 122.81 296.454C123.164 296.287 123.539 296.204 123.935 296.204L129.998 296.329C130.039 296.329 130.091 296.339 130.154 296.36C130.216 296.36 130.268 296.36 130.31 296.36C130.393 295.839 130.487 295.287 130.591 294.704C130.695 294.1 130.789 293.537 130.873 293.016C130.977 292.475 131.07 292.006 131.154 291.61C131.237 291.194 131.3 290.912 131.341 290.766C132.237 287.308 133.852 284.683 136.185 282.891C138.518 281.1 141.425 280.204 144.904 280.204C145.258 280.204 145.727 280.256 146.31 280.36C146.914 280.464 147.55 280.621 148.216 280.829C148.883 281.037 149.56 281.287 150.248 281.579C150.935 281.871 151.55 282.204 152.091 282.579C152.654 282.954 153.112 283.371 153.466 283.829C153.82 284.266 153.998 284.735 153.998 285.235C153.998 285.423 153.977 285.673 153.935 285.985C153.914 286.298 153.841 286.61 153.716 286.923C153.612 287.214 153.445 287.464 153.216 287.673C153.008 287.881 152.706 287.985 152.31 287.985C151.539 287.985 150.904 287.86 150.404 287.61C149.925 287.36 149.445 287.079 148.966 286.766C148.508 286.454 147.977 286.173 147.373 285.923C146.789 285.673 145.998 285.548 144.998 285.548C143.248 285.548 141.831 285.85 140.748 286.454C139.685 287.058 138.841 287.871 138.216 288.891C137.612 289.891 137.175 291.048 136.904 292.36C136.654 293.673 136.477 295.037 136.373 296.454C137.206 296.475 137.935 296.485 138.56 296.485C139.206 296.485 139.779 296.485 140.279 296.485C140.779 296.485 141.227 296.485 141.623 296.485C142.018 296.464 142.404 296.454 142.779 296.454C143.383 296.454 143.998 296.444 144.623 296.423C145.248 296.402 145.862 296.371 146.466 296.329H146.529C146.904 296.287 147.289 296.256 147.685 296.235C148.102 296.214 148.518 296.204 148.935 296.204C149.206 296.204 149.487 296.246 149.779 296.329C150.091 296.391 150.373 296.527 150.623 296.735C150.873 296.923 151.07 297.194 151.216 297.548C151.383 297.881 151.466 298.319 151.466 298.86C151.466 299.61 151.331 300.194 151.06 300.61C150.81 301.006 150.498 301.308 150.123 301.516C149.748 301.725 149.341 301.85 148.904 301.891C148.487 301.933 148.123 301.954 147.81 301.954C147.414 301.954 146.956 301.933 146.435 301.891C145.914 301.85 145.258 301.798 144.466 301.735C143.675 301.673 142.716 301.621 141.591 301.579C140.466 301.537 139.112 301.516 137.529 301.516C137.404 301.516 137.248 301.506 137.06 301.485C136.893 301.464 136.581 301.444 136.123 301.423C136.081 302.985 136.05 304.641 136.029 306.391C136.008 308.141 135.998 310.006 135.998 311.985C135.998 312.923 135.977 313.829 135.935 314.704C135.893 315.579 135.873 316.454 135.873 317.329C135.873 317.725 135.883 318.141 135.904 318.579C135.945 319.016 136.008 319.548 136.091 320.173C136.175 320.798 136.289 321.558 136.435 322.454C136.581 323.35 136.758 324.464 136.966 325.798C137.154 326.985 137.029 327.819 136.591 328.298C136.154 328.756 135.56 328.985 134.81 328.985C133.956 328.985 133.248 328.923 132.685 328.798C132.143 328.694 131.706 328.506 131.373 328.235C131.06 327.964 130.831 327.6 130.685 327.141C130.56 326.683 130.498 326.11 130.498 325.423ZM160.544 303.735C160.544 302.016 160.669 300.204 160.919 298.298C161.169 296.36 161.513 294.423 161.951 292.485C162.388 290.516 162.873 288.579 163.404 286.673C163.966 284.766 164.56 282.97 165.185 281.282C165.935 279.282 166.998 277.22 168.373 275.095C169.779 272.97 171.466 271.048 173.435 269.329C175.435 267.579 177.701 266.141 180.232 265.016C182.794 263.891 185.607 263.329 188.669 263.329C191.357 263.329 194.013 263.72 196.638 264.501C199.294 265.282 201.669 266.438 203.763 267.97C205.888 269.501 207.607 271.391 208.919 273.641C210.232 275.86 210.888 278.438 210.888 281.376C210.888 281.907 210.826 282.532 210.701 283.251C210.576 283.938 210.357 284.61 210.044 285.266C209.763 285.891 209.357 286.423 208.826 286.86C208.294 287.298 207.607 287.516 206.763 287.516C205.794 287.516 205.044 287.251 204.513 286.72C204.013 286.157 203.638 285.47 203.388 284.657C203.169 283.845 203.029 282.954 202.966 281.985C202.935 280.985 202.919 280.048 202.919 279.173C202.919 278.11 202.466 277.11 201.56 276.173C200.654 275.204 199.513 274.36 198.138 273.641C196.763 272.923 195.263 272.36 193.638 271.954C192.013 271.516 190.498 271.298 189.091 271.298C186.466 271.298 184.138 271.907 182.107 273.126C180.076 274.345 178.31 275.938 176.81 277.907C175.31 279.876 174.044 282.079 173.013 284.516C172.013 286.954 171.201 289.391 170.576 291.829C169.951 294.235 169.498 296.532 169.216 298.72C168.966 300.907 168.841 302.704 168.841 304.11C168.841 306.891 169.435 309.376 170.623 311.563C171.81 313.751 173.373 315.61 175.31 317.141C177.248 318.641 179.435 319.798 181.873 320.61C184.31 321.391 186.794 321.782 189.326 321.782C190.576 321.782 192.044 321.735 193.732 321.641C195.419 321.548 197.138 321.391 198.888 321.173C200.638 320.923 202.341 320.595 203.998 320.188C205.685 319.782 207.123 319.282 208.31 318.688C208.81 318.438 209.232 318.141 209.576 317.798C209.919 317.423 210.263 317.079 210.607 316.766C210.982 316.423 211.388 316.141 211.826 315.923C212.294 315.673 212.873 315.548 213.56 315.548C214.904 315.548 215.966 316.001 216.748 316.907C217.56 317.813 217.966 318.923 217.966 320.235C217.966 321.11 217.857 321.829 217.638 322.391C217.419 322.923 217.044 323.407 216.513 323.845C215.326 324.845 213.685 325.704 211.591 326.423C209.529 327.141 207.279 327.735 204.841 328.204C202.404 328.673 199.919 329.016 197.388 329.235C194.888 329.454 192.591 329.563 190.498 329.563C188.06 329.563 185.623 329.407 183.185 329.095C180.779 328.782 178.466 328.266 176.248 327.548C174.029 326.798 171.951 325.798 170.013 324.548C168.107 323.266 166.451 321.673 165.044 319.766C163.638 317.829 162.529 315.548 161.716 312.923C160.935 310.298 160.544 307.235 160.544 303.735ZM224.935 312.048C224.935 308.819 225.456 306.079 226.498 303.829C227.539 301.579 228.904 299.756 230.591 298.36C232.3 296.944 234.227 295.923 236.373 295.298C238.539 294.652 240.748 294.329 242.998 294.329C245.602 294.329 247.935 294.756 249.998 295.61C252.081 296.464 253.841 297.694 255.279 299.298C256.716 300.902 257.82 302.85 258.591 305.141C259.362 307.412 259.748 309.964 259.748 312.798C259.748 314.444 259.529 315.996 259.091 317.454C258.654 318.912 258.05 320.266 257.279 321.516C256.508 322.746 255.581 323.85 254.498 324.829C253.435 325.808 252.268 326.652 250.998 327.36C249.727 328.048 248.383 328.569 246.966 328.923C245.55 329.298 244.112 329.485 242.654 329.485C241.07 329.485 239.529 329.235 238.029 328.735C236.55 328.256 235.154 327.589 233.841 326.735C232.529 325.881 231.32 324.891 230.216 323.766C229.133 322.621 228.195 321.402 227.404 320.11C226.633 318.819 226.029 317.485 225.591 316.11C225.154 314.735 224.935 313.381 224.935 312.048ZM230.341 311.266C230.341 312.808 230.675 314.36 231.341 315.923C232.008 317.464 232.883 318.86 233.966 320.11C235.07 321.36 236.32 322.381 237.716 323.173C239.133 323.944 240.57 324.329 242.029 324.329C243.612 324.329 245.143 324.058 246.623 323.516C248.123 322.975 249.435 322.183 250.56 321.141C251.706 320.1 252.623 318.829 253.31 317.329C253.998 315.829 254.341 314.121 254.341 312.204C254.341 310.329 254.081 308.621 253.56 307.079C253.06 305.516 252.362 304.173 251.466 303.048C250.57 301.923 249.498 301.058 248.248 300.454C246.998 299.829 245.643 299.516 244.185 299.516C242.56 299.516 240.925 299.777 239.279 300.298C237.633 300.798 236.143 301.548 234.81 302.548C233.498 303.527 232.425 304.746 231.591 306.204C230.758 307.662 230.341 309.35 230.341 311.266ZM268.748 310.641C268.748 309.996 268.768 309.266 268.81 308.454C268.852 307.641 268.914 306.798 268.998 305.923C269.081 305.048 269.175 304.162 269.279 303.266C269.404 302.35 269.539 301.475 269.685 300.641C269.831 299.787 269.987 299.006 270.154 298.298C270.341 297.569 270.529 296.944 270.716 296.423C270.945 295.86 271.31 295.402 271.81 295.048C272.31 294.673 272.977 294.485 273.81 294.485C274.56 294.485 275.154 294.756 275.591 295.298C276.05 295.839 276.279 296.485 276.279 297.235C276.279 297.36 276.175 297.756 275.966 298.423C275.779 299.069 275.56 299.944 275.31 301.048C275.081 302.131 274.862 303.423 274.654 304.923C274.466 306.402 274.373 308.027 274.373 309.798C274.373 310.485 274.404 311.329 274.466 312.329C274.55 313.329 274.695 314.381 274.904 315.485C275.112 316.569 275.404 317.662 275.779 318.766C276.154 319.85 276.654 320.829 277.279 321.704C277.925 322.579 278.706 323.287 279.623 323.829C280.539 324.371 281.633 324.641 282.904 324.641C283.987 324.641 284.987 324.475 285.904 324.141C286.82 323.808 287.654 323.381 288.404 322.86C289.175 322.319 289.862 321.714 290.466 321.048C291.091 320.381 291.643 319.714 292.123 319.048C292.623 318.381 293.05 317.756 293.404 317.173C293.779 316.589 294.102 316.1 294.373 315.704C294.498 314.496 294.591 313.433 294.654 312.516C294.716 311.579 294.758 310.725 294.779 309.954C294.82 309.183 294.841 308.464 294.841 307.798C294.862 307.11 294.873 306.412 294.873 305.704C294.873 304.975 294.862 304.204 294.841 303.391C294.841 302.558 294.841 301.61 294.841 300.548V296.829C294.841 296.391 294.935 296.027 295.123 295.735C295.331 295.444 295.581 295.204 295.873 295.016C296.164 294.829 296.487 294.704 296.841 294.641C297.195 294.558 297.518 294.516 297.81 294.516C298.06 294.516 298.331 294.558 298.623 294.641C298.914 294.725 299.185 294.85 299.435 295.016C299.685 295.183 299.893 295.412 300.06 295.704C300.227 295.975 300.31 296.298 300.31 296.673L300.248 326.329C300.248 327.391 300.039 328.11 299.623 328.485C299.206 328.839 298.57 329.016 297.716 329.016C296.945 329.016 296.341 328.954 295.904 328.829C295.487 328.725 295.175 328.516 294.966 328.204C294.779 327.891 294.664 327.464 294.623 326.923C294.581 326.381 294.56 325.683 294.56 324.829V322.704C294.018 323.683 293.404 324.621 292.716 325.516C292.05 326.391 291.268 327.162 290.373 327.829C289.477 328.496 288.445 329.027 287.279 329.423C286.112 329.819 284.779 330.016 283.279 330.016C281.112 330.016 279.248 329.683 277.685 329.016C276.143 328.371 274.831 327.516 273.748 326.454C272.685 325.371 271.82 324.141 271.154 322.766C270.508 321.391 269.998 319.985 269.623 318.548C269.268 317.11 269.029 315.704 268.904 314.329C268.8 312.954 268.748 311.725 268.748 310.641ZM311.591 324.641C311.591 324.1 311.623 323.537 311.685 322.954C311.748 322.371 311.779 321.808 311.779 321.266C311.779 319.996 311.716 318.673 311.591 317.298C311.487 316.194 311.425 315.037 311.404 313.829C311.404 312.621 311.445 311.558 311.529 310.641L312.56 298.298C312.643 297.298 312.893 296.506 313.31 295.923C313.748 295.319 314.518 295.016 315.623 295.016C316.081 295.016 316.477 295.1 316.81 295.266C317.164 295.412 317.456 295.61 317.685 295.86C317.935 296.11 318.133 296.391 318.279 296.704C318.425 296.996 318.529 297.287 318.591 297.579C319.445 296.933 320.383 296.381 321.404 295.923C322.425 295.464 323.477 295.089 324.56 294.798C325.643 294.506 326.737 294.298 327.841 294.173C328.945 294.027 330.018 293.954 331.06 293.954C331.935 293.954 332.935 294.016 334.06 294.141C335.185 294.246 336.248 294.485 337.248 294.86C338.248 295.235 339.091 295.777 339.779 296.485C340.466 297.194 340.81 298.152 340.81 299.36C340.81 300.214 340.539 300.912 339.998 301.454C339.477 301.975 338.779 302.235 337.904 302.235C337.237 302.235 336.716 302.089 336.341 301.798C335.966 301.485 335.633 301.141 335.341 300.766C335.216 300.621 335.07 300.464 334.904 300.298C334.737 300.131 334.498 299.975 334.185 299.829C333.893 299.683 333.508 299.569 333.029 299.485C332.55 299.402 331.935 299.36 331.185 299.36C328.831 299.36 326.789 299.61 325.06 300.11C323.331 300.589 321.904 301.35 320.779 302.391C319.654 303.433 318.82 304.777 318.279 306.423C317.737 308.048 317.466 310.006 317.466 312.298C317.466 313.152 317.477 313.964 317.498 314.735C317.518 315.485 317.55 316.235 317.591 316.985C317.654 317.735 317.716 318.496 317.779 319.266C317.841 320.037 317.904 320.86 317.966 321.735C318.008 322.402 318.07 323.089 318.154 323.798C318.237 324.506 318.279 325.194 318.279 325.86C318.279 326.048 318.227 326.308 318.123 326.641C318.018 326.975 317.841 327.308 317.591 327.641C317.362 327.954 317.05 328.235 316.654 328.485C316.279 328.714 315.81 328.829 315.248 328.829C314.518 328.829 313.914 328.746 313.435 328.579C312.977 328.412 312.602 328.162 312.31 327.829C312.039 327.475 311.852 327.037 311.748 326.516C311.643 325.975 311.591 325.35 311.591 324.641ZM349.716 323.766C349.716 323.496 349.831 323.131 350.06 322.673C350.289 322.194 350.57 321.766 350.904 321.391C351.258 321.016 351.643 320.777 352.06 320.673C352.477 320.548 352.873 320.694 353.248 321.11C353.935 321.881 354.55 322.485 355.091 322.923C355.654 323.36 356.237 323.683 356.841 323.891C357.466 324.1 358.143 324.225 358.873 324.266C359.623 324.308 360.518 324.329 361.56 324.329C362.81 324.329 364.081 324.194 365.373 323.923C366.685 323.631 367.883 323.298 368.966 322.923C370.05 322.527 370.935 322.121 371.623 321.704C372.31 321.287 372.654 320.954 372.654 320.704C372.654 320.371 372.435 320.027 371.998 319.673C371.581 319.319 371.008 318.985 370.279 318.673C369.55 318.36 368.695 318.069 367.716 317.798C366.737 317.506 365.695 317.266 364.591 317.079C363.3 316.912 361.977 316.725 360.623 316.516C359.289 316.308 357.987 316.037 356.716 315.704C355.445 315.371 354.248 314.975 353.123 314.516C351.998 314.037 351.008 313.444 350.154 312.735C349.3 312.027 348.623 311.183 348.123 310.204C347.643 309.225 347.404 308.079 347.404 306.766C347.404 305.35 347.643 304.037 348.123 302.829C348.623 301.621 349.289 300.516 350.123 299.516C350.977 298.516 351.966 297.631 353.091 296.86C354.237 296.089 355.466 295.444 356.779 294.923C358.091 294.402 359.456 294.006 360.873 293.735C362.289 293.464 363.695 293.329 365.091 293.329C366.55 293.329 367.873 293.516 369.06 293.891C370.268 294.246 371.289 294.725 372.123 295.329C372.956 295.912 373.602 296.589 374.06 297.36C374.518 298.131 374.748 298.933 374.748 299.766C374.748 300.287 374.737 300.881 374.716 301.548C374.695 302.214 374.602 302.85 374.435 303.454C374.289 304.037 374.039 304.537 373.685 304.954C373.331 305.35 372.82 305.548 372.154 305.548C371.737 305.548 371.414 305.464 371.185 305.298C370.977 305.11 370.82 304.891 370.716 304.641C370.612 304.391 370.55 304.121 370.529 303.829C370.508 303.516 370.498 303.235 370.498 302.985C370.498 302.173 370.352 301.516 370.06 301.016C369.789 300.516 369.383 300.121 368.841 299.829C368.3 299.537 367.633 299.339 366.841 299.235C366.07 299.131 365.185 299.079 364.185 299.079C363.498 299.079 362.748 299.173 361.935 299.36C361.123 299.548 360.3 299.808 359.466 300.141C358.654 300.454 357.852 300.839 357.06 301.298C356.289 301.756 355.602 302.266 354.998 302.829C354.414 303.371 353.935 303.944 353.56 304.548C353.206 305.152 353.029 305.777 353.029 306.423C353.029 307.235 353.352 307.912 353.998 308.454C354.643 308.975 355.498 309.412 356.56 309.766C357.623 310.121 358.82 310.423 360.154 310.673C361.508 310.902 362.883 311.121 364.279 311.329C366.008 311.6 367.706 311.944 369.373 312.36C371.06 312.756 372.57 313.298 373.904 313.985C375.237 314.673 376.31 315.558 377.123 316.641C377.935 317.704 378.341 319.027 378.341 320.61C378.341 321.735 378.018 322.746 377.373 323.641C376.727 324.516 375.883 325.298 374.841 325.985C373.82 326.652 372.664 327.225 371.373 327.704C370.081 328.183 368.779 328.569 367.466 328.86C366.175 329.173 364.935 329.402 363.748 329.548C362.56 329.694 361.56 329.766 360.748 329.766C360.123 329.766 359.414 329.735 358.623 329.673C357.831 329.631 357.018 329.537 356.185 329.391C355.373 329.246 354.581 329.037 353.81 328.766C353.039 328.496 352.341 328.141 351.716 327.704C351.112 327.246 350.623 326.704 350.248 326.079C349.893 325.433 349.716 324.662 349.716 323.766ZM387.123 313.829C387.123 310.871 387.55 308.194 388.404 305.798C389.258 303.402 390.518 301.36 392.185 299.673C393.852 297.985 395.893 296.683 398.31 295.766C400.748 294.85 403.55 294.391 406.716 294.391C407.8 294.391 408.904 294.506 410.029 294.735C411.175 294.964 412.279 295.298 413.341 295.735C414.404 296.173 415.404 296.714 416.341 297.36C417.3 298.006 418.133 298.756 418.841 299.61C419.55 300.444 420.102 301.381 420.498 302.423C420.914 303.444 421.123 304.558 421.123 305.766C421.123 306.704 420.914 307.381 420.498 307.798C420.081 308.214 419.529 308.506 418.841 308.673C418.237 308.839 417.529 308.996 416.716 309.141C415.925 309.266 415.029 309.485 414.029 309.798L393.123 316.298C393.393 317.569 393.831 318.652 394.435 319.548C395.06 320.444 395.779 321.194 396.591 321.798C397.425 322.402 398.32 322.881 399.279 323.235C400.258 323.589 401.237 323.86 402.216 324.048C403.195 324.214 404.143 324.329 405.06 324.391C405.998 324.433 406.841 324.454 407.591 324.454C408.779 324.454 409.956 324.319 411.123 324.048C412.289 323.777 413.362 323.475 414.341 323.141C415.32 322.808 416.175 322.506 416.904 322.235C417.654 321.964 418.195 321.829 418.529 321.829C419.633 321.829 420.435 322.079 420.935 322.579C421.456 323.079 421.716 323.86 421.716 324.923C421.716 325.61 421.362 326.204 420.654 326.704C419.966 327.204 419.07 327.621 417.966 327.954C416.862 328.287 415.633 328.548 414.279 328.735C412.945 328.944 411.633 329.089 410.341 329.173C409.07 329.277 407.904 329.339 406.841 329.36C405.779 329.402 404.977 329.423 404.435 329.423C402.998 329.423 401.56 329.235 400.123 328.86C398.706 328.506 397.352 327.996 396.06 327.329C394.789 326.662 393.602 325.86 392.498 324.923C391.414 323.964 390.466 322.912 389.654 321.766C388.862 320.6 388.237 319.35 387.779 318.016C387.341 316.683 387.123 315.287 387.123 313.829ZM392.966 311.391C393.945 311.1 395.07 310.766 396.341 310.391C397.612 310.016 398.945 309.621 400.341 309.204C401.758 308.766 403.185 308.319 404.623 307.86C406.081 307.402 407.477 306.954 408.81 306.516C410.164 306.058 411.404 305.631 412.529 305.235C413.675 304.819 414.633 304.433 415.404 304.079C415.175 303.287 414.789 302.61 414.248 302.048C413.706 301.464 413.018 300.996 412.185 300.641C411.373 300.266 410.425 299.996 409.341 299.829C408.258 299.641 407.07 299.548 405.779 299.548C405.195 299.548 404.498 299.631 403.685 299.798C402.893 299.964 402.05 300.235 401.154 300.61C400.279 300.964 399.383 301.444 398.466 302.048C397.57 302.652 396.748 303.391 395.998 304.266C395.248 305.141 394.602 306.173 394.06 307.36C393.518 308.527 393.154 309.871 392.966 311.391Z" fill="#F8F9FA"/>
<path d="M186.707 138.549L186.797 138.278L186.731 138.001C185.796 134.073 185.135 129.667 184.752 124.782L205.727 41.1685C206.327 39.3561 206.63 37.5336 206.63 35.7047C206.63 33.6782 205.242 31.882 203.05 30.288C201.108 28.8749 199.277 27.9955 197.59 27.8237C194.12 21.7929 189.806 16.8544 184.642 13.0256C179.584 8.94274 174.492 6.09433 169.365 4.51405C164.34 2.77558 160.19 1.87268 156.958 1.87268C140.836 1.87268 126.152 6.14873 112.932 14.7022C99.7303 23.0511 89.3422 34.2183 81.775 48.1884L81.7727 48.1928C74.3985 61.9708 70.7103 76.7251 70.7103 92.4407C70.7103 109.104 74.9734 121.437 83.719 129.189L83.719 129.189L83.7274 129.196C92.5721 136.862 103.566 140.673 116.638 140.673C121.843 140.673 128.526 138.78 136.635 135.112L136.644 135.107C143.577 131.883 149.152 127.97 153.332 123.351C152.971 126.007 152.79 128.663 152.79 131.321C152.79 135.621 154.346 138.938 157.55 141.077C160.88 143.363 166.125 144.417 173.086 144.417C175.368 144.417 177.992 143.798 180.936 142.621C182.503 142.033 183.778 141.427 184.729 140.793C185.659 140.173 186.41 139.44 186.707 138.549ZM163.209 34.1505L163.219 34.1599L163.23 34.1689C166.466 36.8652 168.631 40.161 169.749 44.0734L160.024 83.8324C158.543 89.001 155.388 94.0366 150.491 98.9336C145.778 103.647 140.31 107.419 134.081 110.25L134.08 110.25L134.07 110.255C128.008 113.097 122.684 114.481 118.078 114.481C115.452 114.481 113.334 113.871 111.664 112.714C109.993 111.558 108.688 109.799 107.784 107.357C105.92 102.323 104.966 95.8276 104.966 87.8327C104.966 79.7738 107.309 71.196 112.053 62.0866C116.793 52.9869 122.946 45.4178 130.511 39.3656L130.513 39.3637C138.235 33.149 146.371 30.0807 154.942 30.0807C157.275 30.0807 160.021 31.3378 163.209 34.1505Z" fill="#176D76" stroke="white" stroke-width="2"/>
<path d="M313.731 106.04L313.804 105.844L313.793 105.636C313.587 101.722 311.935 98.2404 308.917 95.2127C305.917 91.8094 300.246 90.2887 292.346 90.2887C289.276 90.2887 286.204 91.985 283.143 95.0455C280.072 98.1167 276.899 102.673 273.614 108.664L273.61 108.67L273.607 108.677C272.074 111.571 268.189 114.158 261.518 116.255C254.863 118.346 249.016 119.377 243.962 119.377C235.794 119.377 229.79 117.947 225.806 115.23C221.871 112.548 219.906 108.738 219.906 103.673C219.906 90.6263 223.59 78.4312 230.975 67.0676C238.596 55.4469 247.343 46.1357 257.211 39.1139C267.365 32.0255 275.207 28.6406 280.826 28.6406C283.518 28.6406 286.025 29.3555 288.366 30.7963L288.391 30.8114L288.416 30.8251C290.668 32.0378 291.627 33.5598 291.634 35.3959L291.347 41.9972L291.346 42.0189V42.0406C291.346 45.6402 292.147 48.6502 293.842 50.9808L293.858 51.0039L293.876 51.0259C295.892 53.4901 299.447 54.5606 304.154 54.5606C310.066 54.5606 314.912 53.1802 318.592 50.318L318.606 50.3077L318.618 50.2969C322.286 47.241 324.162 43.4148 324.162 38.8727C324.162 27.687 320.423 18.7583 312.885 12.2068C305.573 5.49259 296.299 2.16064 285.146 2.16064C267.303 2.16064 250.522 6.7209 234.82 15.8317C219.12 24.9416 206.614 37.3515 197.311 53.0487C188.002 68.5646 183.346 85.4458 183.346 103.673C183.346 116.428 187.973 126.883 197.225 134.954L197.234 134.962C206.519 142.864 220.721 146.721 239.642 146.721C252.041 146.721 263.494 144.686 273.989 140.605C284.447 136.537 293.104 131.39 299.933 125.147L299.939 125.142L299.944 125.136C306.733 118.735 311.356 112.373 313.731 106.04Z" fill="white" stroke="#176D76" stroke-width="2"/>
<path d="M293.763 152.945C271.48 173.608 236.836 174.31 207.814 175.762C192.119 176.546 176.995 175.428 161.494 173.102C158.085 172.591 152.805 170.375 149.313 171.644C143.913 173.608 145.314 183.929 145.882 188.114C147.059 196.779 152.622 204.142 159.521 209.215C170.8 217.508 184.303 224.31 198.035 227.057" stroke="white" stroke-width="3" stroke-linecap="round"/>
</svg>
