<svg width="425" height="568" viewBox="0 0 425 568" fill="none" xmlns="http://www.w3.org/2000/svg">
<path d="M5.57812 535.969C5.57812 534.844 5.76562 533.797 6.14062 532.828C6.51562 531.859 6.92188 530.953 7.35938 530.109C7.42188 529.984 7.51562 529.797 7.64062 529.547C7.79688 529.266 8.0625 528.703 8.4375 527.859C8.8125 526.984 9.32812 525.688 9.98438 523.969C10.6719 522.25 11.5781 519.859 12.7031 516.797C12.6719 516.422 12.6406 516.062 12.6094 515.719C12.6094 515.375 12.6094 515.047 12.6094 514.734C12.6094 513.453 12.8125 512.375 13.2188 511.5C13.6562 510.594 14.4688 509.719 15.6562 508.875L27.5625 484.031C28.0312 483.062 28.5469 482.031 29.1094 480.938C29.6719 479.812 30.2969 478.781 30.9844 477.844C31.7031 476.875 32.4844 476.078 33.3281 475.453C34.2031 474.797 35.1562 474.469 36.1875 474.469C36.9688 474.469 37.8438 474.938 38.8125 475.875C39.7812 476.781 40.7656 477.969 41.7656 479.438C42.7969 480.875 43.8125 482.484 44.8125 484.266C45.8438 486.016 46.7812 487.719 47.625 489.375C48.5 491.031 49.2656 492.547 49.9219 493.922C50.5781 495.266 51.0469 496.25 51.3281 496.875C52.8906 500.375 54.0625 503.047 54.8438 504.891C55.625 506.703 56.2344 507.859 56.6719 508.359C58.1094 509.266 59.1094 510.328 59.6719 511.547C60.2344 512.734 60.5156 514.297 60.5156 516.234C61.3906 518.453 62.1719 520.688 62.8594 522.938C63.5781 525.156 64.3594 527.203 65.2031 529.078C65.8281 530.453 66.4688 531.594 67.125 532.5C67.7812 533.375 68.3594 534.219 68.8594 535.031C69.3906 535.812 69.8125 536.641 70.125 537.516C70.4688 538.359 70.6406 539.453 70.6406 540.797C70.6406 541.703 70.4219 542.391 69.9844 542.859C69.5469 543.359 69.0156 543.719 68.3906 543.938C67.7969 544.188 67.1875 544.328 66.5625 544.359C65.9375 544.391 65.4375 544.406 65.0625 544.406C64.0938 544.406 63.125 543.859 62.1562 542.766C61.1875 541.672 60.2812 540.375 59.4375 538.875C58.5938 537.344 57.8438 535.781 57.1875 534.188C56.5625 532.594 56.1094 531.281 55.8281 530.25C55.4844 529.094 55.125 527.875 54.75 526.594C54.4062 525.312 54.0625 524.125 53.7188 523.031C53.375 521.906 53.0156 520.953 52.6406 520.172C52.2969 519.391 51.9531 518.906 51.6094 518.719C51.1094 518.281 50.5469 518 49.9219 517.875C49.2969 517.719 48.4688 517.641 47.4375 517.641C45.6562 517.641 43.8594 517.641 42.0469 517.641C40.2344 517.609 38.375 517.594 36.4688 517.594C34.5625 517.562 32.5781 517.547 30.5156 517.547C28.4844 517.516 26.3281 517.5 24.0469 517.5C23.4219 517.5 22.9062 517.562 22.5 517.688C22.125 517.781 21.7656 518.031 21.4219 518.438C21.1094 518.812 20.7812 519.375 20.4375 520.125C20.125 520.875 19.75 521.906 19.3125 523.219L15.5625 533.297C15.2812 534.297 15.0156 535.234 14.7656 536.109C14.5156 536.953 14.2812 537.547 14.0625 537.891C13.7812 538.359 13.4688 538.734 13.125 539.016C12.8125 539.266 12.4844 539.453 12.1406 539.578C11.7969 539.703 11.4375 539.781 11.0625 539.812C10.6875 539.812 10.3125 539.812 9.9375 539.812C8.59375 539.812 7.53125 539.547 6.75 539.016C5.96875 538.453 5.57812 537.438 5.57812 535.969ZM24.9844 508.969C27.9531 509 30.3906 509.031 32.2969 509.062C34.2344 509.094 35.8125 509.125 37.0312 509.156C38.25 509.188 39.2031 509.219 39.8906 509.25C40.5781 509.25 41.1875 509.25 41.7188 509.25C42.0938 509.25 42.4531 509.25 42.7969 509.25C43.1406 509.219 43.5312 509.203 43.9688 509.203C44.4375 509.172 44.9688 509.141 45.5625 509.109C46.1875 509.078 46.9375 509.031 47.8125 508.969C47.375 507.719 46.7031 506.141 45.7969 504.234C44.9219 502.328 43.9531 500.359 42.8906 498.328C41.8594 496.266 40.8281 494.266 39.7969 492.328C38.7656 490.391 37.9062 488.75 37.2188 487.406C36.5938 486.219 36.0938 485.625 35.7188 485.625C35.5312 485.625 35.1719 486.094 34.6406 487.031C34.1094 487.938 33.4844 489.109 32.7656 490.547C32.0781 491.984 31.3438 493.609 30.5625 495.422C29.7812 497.203 29.0156 498.953 28.2656 500.672C27.5469 502.391 26.8906 504 26.2969 505.5C25.7031 506.969 25.2656 508.125 24.9844 508.969ZM80.8438 534.469C80.7396 533.99 80.6875 533.469 80.6875 532.906C80.6875 532.344 80.6875 531.792 80.6875 531.25C80.6875 529.854 80.6562 528.479 80.5938 527.125C80.5312 525.75 80.4583 524.385 80.375 523.031C80.3125 521.677 80.25 520.312 80.1875 518.938C80.1458 517.562 80.1458 516.167 80.1875 514.75L80.4375 498.438C80.4375 497.062 80.6458 495.948 81.0625 495.094C81.4792 494.24 82.2292 493.812 83.3125 493.812C83.7083 493.812 84.0625 493.896 84.375 494.062C84.7083 494.229 84.9896 494.448 85.2188 494.719C85.4479 494.969 85.625 495.25 85.75 495.562C85.875 495.875 85.9375 496.177 85.9375 496.469V519.406C85.9375 521.677 85.9792 523.958 86.0625 526.25C86.1667 528.521 86.4271 530.823 86.8438 533.156C86.9062 533.531 87 533.844 87.125 534.094C87.2708 534.323 87.4271 534.51 87.5938 534.656C87.7812 534.781 87.9792 534.865 88.1875 534.906C88.3958 534.948 88.5938 534.969 88.7812 534.969C89.0938 534.969 89.3542 534.906 89.5625 534.781C89.7708 534.635 89.9271 534.5 90.0312 534.375C90.1562 534.229 90.2812 534.094 90.4062 533.969C90.5521 533.823 90.7083 533.698 90.875 533.594C91.0417 533.469 91.2396 533.375 91.4688 533.312C91.7188 533.25 92.0104 533.219 92.3438 533.219C92.7188 533.219 93.0417 533.302 93.3125 533.469C93.5833 533.615 93.8125 533.812 94 534.062C94.1875 534.312 94.3229 534.594 94.4062 534.906C94.5104 535.219 94.5625 535.531 94.5625 535.844C94.5625 536.49 94.3646 537.083 93.9688 537.625C93.5938 538.146 93.1146 538.594 92.5312 538.969C91.9479 539.344 91.3125 539.635 90.625 539.844C89.9375 540.052 89.2917 540.156 88.6875 540.156C86.5208 540.198 84.7708 539.74 83.4375 538.781C82.125 537.802 81.2604 536.365 80.8438 534.469ZM102.656 534.469C102.552 533.99 102.5 533.469 102.5 532.906C102.5 532.344 102.5 531.792 102.5 531.25C102.5 529.854 102.469 528.479 102.406 527.125C102.344 525.75 102.271 524.385 102.188 523.031C102.125 521.677 102.062 520.312 102 518.938C101.958 517.562 101.958 516.167 102 514.75L102.25 498.438C102.25 497.062 102.458 495.948 102.875 495.094C103.292 494.24 104.042 493.812 105.125 493.812C105.521 493.812 105.875 493.896 106.188 494.062C106.521 494.229 106.802 494.448 107.031 494.719C107.26 494.969 107.438 495.25 107.562 495.562C107.688 495.875 107.75 496.177 107.75 496.469V519.406C107.75 521.677 107.792 523.958 107.875 526.25C107.979 528.521 108.24 530.823 108.656 533.156C108.719 533.531 108.812 533.844 108.938 534.094C109.083 534.323 109.24 534.51 109.406 534.656C109.594 534.781 109.792 534.865 110 534.906C110.208 534.948 110.406 534.969 110.594 534.969C110.906 534.969 111.167 534.906 111.375 534.781C111.583 534.635 111.74 534.5 111.844 534.375C111.969 534.229 112.094 534.094 112.219 533.969C112.365 533.823 112.521 533.698 112.688 533.594C112.854 533.469 113.052 533.375 113.281 533.312C113.531 533.25 113.823 533.219 114.156 533.219C114.531 533.219 114.854 533.302 115.125 533.469C115.396 533.615 115.625 533.812 115.812 534.062C116 534.312 116.135 534.594 116.219 534.906C116.323 535.219 116.375 535.531 116.375 535.844C116.375 536.49 116.177 537.083 115.781 537.625C115.406 538.146 114.927 538.594 114.344 538.969C113.76 539.344 113.125 539.635 112.438 539.844C111.75 540.052 111.104 540.156 110.5 540.156C108.333 540.198 106.583 539.74 105.25 538.781C103.938 537.802 103.073 536.365 102.656 534.469ZM129.531 536.75C129.531 536.562 129.5 536.24 129.438 535.781C129.375 535.302 129.302 534.74 129.219 534.094C129.135 533.448 129.062 532.76 129 532.031C128.938 531.281 128.906 530.542 128.906 529.812C128.906 529.229 128.917 528.354 128.938 527.188C128.958 526.021 128.979 524.688 129 523.188C129.021 521.667 129.042 520.031 129.062 518.281C129.083 516.51 129.094 514.729 129.094 512.938H128.812L122.969 513.281C122.552 513.281 122.167 513.198 121.812 513.031C121.458 512.865 121.156 512.656 120.906 512.406C120.656 512.135 120.458 511.844 120.312 511.531C120.167 511.198 120.094 510.865 120.094 510.531C120.094 510.135 120.167 509.76 120.312 509.406C120.458 509.031 120.656 508.708 120.906 508.438C121.177 508.146 121.49 507.927 121.844 507.781C122.198 507.615 122.573 507.531 122.969 507.531L129.031 507.656C129.073 507.656 129.125 507.667 129.188 507.688C129.25 507.688 129.302 507.688 129.344 507.688C129.427 507.167 129.521 506.615 129.625 506.031C129.729 505.427 129.823 504.865 129.906 504.344C130.01 503.802 130.104 503.333 130.188 502.938C130.271 502.521 130.333 502.24 130.375 502.094C131.271 498.635 132.885 496.01 135.219 494.219C137.552 492.427 140.458 491.531 143.938 491.531C144.292 491.531 144.76 491.583 145.344 491.688C145.948 491.792 146.583 491.948 147.25 492.156C147.917 492.365 148.594 492.615 149.281 492.906C149.969 493.198 150.583 493.531 151.125 493.906C151.688 494.281 152.146 494.698 152.5 495.156C152.854 495.594 153.031 496.062 153.031 496.562C153.031 496.75 153.01 497 152.969 497.312C152.948 497.625 152.875 497.938 152.75 498.25C152.646 498.542 152.479 498.792 152.25 499C152.042 499.208 151.74 499.312 151.344 499.312C150.573 499.312 149.938 499.188 149.438 498.938C148.958 498.688 148.479 498.406 148 498.094C147.542 497.781 147.01 497.5 146.406 497.25C145.823 497 145.031 496.875 144.031 496.875C142.281 496.875 140.865 497.177 139.781 497.781C138.719 498.385 137.875 499.198 137.25 500.219C136.646 501.219 136.208 502.375 135.938 503.688C135.688 505 135.51 506.365 135.406 507.781C136.24 507.802 136.969 507.812 137.594 507.812C138.24 507.812 138.812 507.812 139.312 507.812C139.812 507.812 140.26 507.812 140.656 507.812C141.052 507.792 141.438 507.781 141.812 507.781C142.417 507.781 143.031 507.771 143.656 507.75C144.281 507.729 144.896 507.698 145.5 507.656H145.562C145.938 507.615 146.323 507.583 146.719 507.562C147.135 507.542 147.552 507.531 147.969 507.531C148.24 507.531 148.521 507.573 148.812 507.656C149.125 507.719 149.406 507.854 149.656 508.062C149.906 508.25 150.104 508.521 150.25 508.875C150.417 509.208 150.5 509.646 150.5 510.188C150.5 510.938 150.365 511.521 150.094 511.938C149.844 512.333 149.531 512.635 149.156 512.844C148.781 513.052 148.375 513.177 147.938 513.219C147.521 513.26 147.156 513.281 146.844 513.281C146.448 513.281 145.99 513.26 145.469 513.219C144.948 513.177 144.292 513.125 143.5 513.062C142.708 513 141.75 512.948 140.625 512.906C139.5 512.865 138.146 512.844 136.562 512.844C136.438 512.844 136.281 512.833 136.094 512.812C135.927 512.792 135.615 512.771 135.156 512.75C135.115 514.312 135.083 515.969 135.062 517.719C135.042 519.469 135.031 521.333 135.031 523.312C135.031 524.25 135.01 525.156 134.969 526.031C134.927 526.906 134.906 527.781 134.906 528.656C134.906 529.052 134.917 529.469 134.938 529.906C134.979 530.344 135.042 530.875 135.125 531.5C135.208 532.125 135.323 532.885 135.469 533.781C135.615 534.677 135.792 535.792 136 537.125C136.188 538.312 136.062 539.146 135.625 539.625C135.188 540.083 134.594 540.312 133.844 540.312C132.99 540.312 132.281 540.25 131.719 540.125C131.177 540.021 130.74 539.833 130.406 539.562C130.094 539.292 129.865 538.927 129.719 538.469C129.594 538.01 129.531 537.438 129.531 536.75ZM159.578 515.062C159.578 513.344 159.703 511.531 159.953 509.625C160.203 507.688 160.547 505.75 160.984 503.812C161.422 501.844 161.906 499.906 162.438 498C163 496.094 163.594 494.297 164.219 492.609C164.969 490.609 166.031 488.547 167.406 486.422C168.812 484.297 170.5 482.375 172.469 480.656C174.469 478.906 176.734 477.469 179.266 476.344C181.828 475.219 184.641 474.656 187.703 474.656C190.391 474.656 193.047 475.047 195.672 475.828C198.328 476.609 200.703 477.766 202.797 479.297C204.922 480.828 206.641 482.719 207.953 484.969C209.266 487.188 209.922 489.766 209.922 492.703C209.922 493.234 209.859 493.859 209.734 494.578C209.609 495.266 209.391 495.938 209.078 496.594C208.797 497.219 208.391 497.75 207.859 498.188C207.328 498.625 206.641 498.844 205.797 498.844C204.828 498.844 204.078 498.578 203.547 498.047C203.047 497.484 202.672 496.797 202.422 495.984C202.203 495.172 202.062 494.281 202 493.312C201.969 492.312 201.953 491.375 201.953 490.5C201.953 489.438 201.5 488.438 200.594 487.5C199.688 486.531 198.547 485.688 197.172 484.969C195.797 484.25 194.297 483.688 192.672 483.281C191.047 482.844 189.531 482.625 188.125 482.625C185.5 482.625 183.172 483.234 181.141 484.453C179.109 485.672 177.344 487.266 175.844 489.234C174.344 491.203 173.078 493.406 172.047 495.844C171.047 498.281 170.234 500.719 169.609 503.156C168.984 505.562 168.531 507.859 168.25 510.047C168 512.234 167.875 514.031 167.875 515.438C167.875 518.219 168.469 520.703 169.656 522.891C170.844 525.078 172.406 526.938 174.344 528.469C176.281 529.969 178.469 531.125 180.906 531.938C183.344 532.719 185.828 533.109 188.359 533.109C189.609 533.109 191.078 533.062 192.766 532.969C194.453 532.875 196.172 532.719 197.922 532.5C199.672 532.25 201.375 531.922 203.031 531.516C204.719 531.109 206.156 530.609 207.344 530.016C207.844 529.766 208.266 529.469 208.609 529.125C208.953 528.75 209.297 528.406 209.641 528.094C210.016 527.75 210.422 527.469 210.859 527.25C211.328 527 211.906 526.875 212.594 526.875C213.938 526.875 215 527.328 215.781 528.234C216.594 529.141 217 530.25 217 531.562C217 532.438 216.891 533.156 216.672 533.719C216.453 534.25 216.078 534.734 215.547 535.172C214.359 536.172 212.719 537.031 210.625 537.75C208.562 538.469 206.312 539.062 203.875 539.531C201.438 540 198.953 540.344 196.422 540.562C193.922 540.781 191.625 540.891 189.531 540.891C187.094 540.891 184.656 540.734 182.219 540.422C179.812 540.109 177.5 539.594 175.281 538.875C173.062 538.125 170.984 537.125 169.047 535.875C167.141 534.594 165.484 533 164.078 531.094C162.672 529.156 161.562 526.875 160.75 524.25C159.969 521.625 159.578 518.562 159.578 515.062ZM223.969 523.375C223.969 520.146 224.49 517.406 225.531 515.156C226.573 512.906 227.938 511.083 229.625 509.688C231.333 508.271 233.26 507.25 235.406 506.625C237.573 505.979 239.781 505.656 242.031 505.656C244.635 505.656 246.969 506.083 249.031 506.938C251.115 507.792 252.875 509.021 254.312 510.625C255.75 512.229 256.854 514.177 257.625 516.469C258.396 518.74 258.781 521.292 258.781 524.125C258.781 525.771 258.562 527.323 258.125 528.781C257.688 530.24 257.083 531.594 256.312 532.844C255.542 534.073 254.615 535.177 253.531 536.156C252.469 537.135 251.302 537.979 250.031 538.688C248.76 539.375 247.417 539.896 246 540.25C244.583 540.625 243.146 540.812 241.688 540.812C240.104 540.812 238.562 540.562 237.062 540.062C235.583 539.583 234.188 538.917 232.875 538.062C231.562 537.208 230.354 536.219 229.25 535.094C228.167 533.948 227.229 532.729 226.438 531.438C225.667 530.146 225.062 528.812 224.625 527.438C224.188 526.062 223.969 524.708 223.969 523.375ZM229.375 522.594C229.375 524.135 229.708 525.688 230.375 527.25C231.042 528.792 231.917 530.188 233 531.438C234.104 532.688 235.354 533.708 236.75 534.5C238.167 535.271 239.604 535.656 241.062 535.656C242.646 535.656 244.177 535.385 245.656 534.844C247.156 534.302 248.469 533.51 249.594 532.469C250.74 531.427 251.656 530.156 252.344 528.656C253.031 527.156 253.375 525.448 253.375 523.531C253.375 521.656 253.115 519.948 252.594 518.406C252.094 516.844 251.396 515.5 250.5 514.375C249.604 513.25 248.531 512.385 247.281 511.781C246.031 511.156 244.677 510.844 243.219 510.844C241.594 510.844 239.958 511.104 238.312 511.625C236.667 512.125 235.177 512.875 233.844 513.875C232.531 514.854 231.458 516.073 230.625 517.531C229.792 518.99 229.375 520.677 229.375 522.594ZM267.781 521.969C267.781 521.323 267.802 520.594 267.844 519.781C267.885 518.969 267.948 518.125 268.031 517.25C268.115 516.375 268.208 515.49 268.312 514.594C268.438 513.677 268.573 512.802 268.719 511.969C268.865 511.115 269.021 510.333 269.188 509.625C269.375 508.896 269.562 508.271 269.75 507.75C269.979 507.188 270.344 506.729 270.844 506.375C271.344 506 272.01 505.812 272.844 505.812C273.594 505.812 274.188 506.083 274.625 506.625C275.083 507.167 275.312 507.812 275.312 508.562C275.312 508.688 275.208 509.083 275 509.75C274.812 510.396 274.594 511.271 274.344 512.375C274.115 513.458 273.896 514.75 273.688 516.25C273.5 517.729 273.406 519.354 273.406 521.125C273.406 521.812 273.438 522.656 273.5 523.656C273.583 524.656 273.729 525.708 273.938 526.812C274.146 527.896 274.438 528.99 274.812 530.094C275.188 531.177 275.688 532.156 276.312 533.031C276.958 533.906 277.74 534.615 278.656 535.156C279.573 535.698 280.667 535.969 281.938 535.969C283.021 535.969 284.021 535.802 284.938 535.469C285.854 535.135 286.688 534.708 287.438 534.188C288.208 533.646 288.896 533.042 289.5 532.375C290.125 531.708 290.677 531.042 291.156 530.375C291.656 529.708 292.083 529.083 292.438 528.5C292.812 527.917 293.135 527.427 293.406 527.031C293.531 525.823 293.625 524.76 293.688 523.844C293.75 522.906 293.792 522.052 293.812 521.281C293.854 520.51 293.875 519.792 293.875 519.125C293.896 518.438 293.906 517.74 293.906 517.031C293.906 516.302 293.896 515.531 293.875 514.719C293.875 513.885 293.875 512.938 293.875 511.875V508.156C293.875 507.719 293.969 507.354 294.156 507.062C294.365 506.771 294.615 506.531 294.906 506.344C295.198 506.156 295.521 506.031 295.875 505.969C296.229 505.885 296.552 505.844 296.844 505.844C297.094 505.844 297.365 505.885 297.656 505.969C297.948 506.052 298.219 506.177 298.469 506.344C298.719 506.51 298.927 506.74 299.094 507.031C299.26 507.302 299.344 507.625 299.344 508L299.281 537.656C299.281 538.719 299.073 539.438 298.656 539.812C298.24 540.167 297.604 540.344 296.75 540.344C295.979 540.344 295.375 540.281 294.938 540.156C294.521 540.052 294.208 539.844 294 539.531C293.812 539.219 293.698 538.792 293.656 538.25C293.615 537.708 293.594 537.01 293.594 536.156V534.031C293.052 535.01 292.438 535.948 291.75 536.844C291.083 537.719 290.302 538.49 289.406 539.156C288.51 539.823 287.479 540.354 286.312 540.75C285.146 541.146 283.812 541.344 282.312 541.344C280.146 541.344 278.281 541.01 276.719 540.344C275.177 539.698 273.865 538.844 272.781 537.781C271.719 536.698 270.854 535.469 270.188 534.094C269.542 532.719 269.031 531.312 268.656 529.875C268.302 528.438 268.062 527.031 267.938 525.656C267.833 524.281 267.781 523.052 267.781 521.969ZM310.625 535.969C310.625 535.427 310.656 534.865 310.719 534.281C310.781 533.698 310.812 533.135 310.812 532.594C310.812 531.323 310.75 530 310.625 528.625C310.521 527.521 310.458 526.365 310.438 525.156C310.438 523.948 310.479 522.885 310.562 521.969L311.594 509.625C311.677 508.625 311.927 507.833 312.344 507.25C312.781 506.646 313.552 506.344 314.656 506.344C315.115 506.344 315.51 506.427 315.844 506.594C316.198 506.74 316.49 506.938 316.719 507.188C316.969 507.438 317.167 507.719 317.312 508.031C317.458 508.323 317.562 508.615 317.625 508.906C318.479 508.26 319.417 507.708 320.438 507.25C321.458 506.792 322.51 506.417 323.594 506.125C324.677 505.833 325.771 505.625 326.875 505.5C327.979 505.354 329.052 505.281 330.094 505.281C330.969 505.281 331.969 505.344 333.094 505.469C334.219 505.573 335.281 505.812 336.281 506.188C337.281 506.562 338.125 507.104 338.812 507.812C339.5 508.521 339.844 509.479 339.844 510.688C339.844 511.542 339.573 512.24 339.031 512.781C338.51 513.302 337.812 513.562 336.938 513.562C336.271 513.562 335.75 513.417 335.375 513.125C335 512.812 334.667 512.469 334.375 512.094C334.25 511.948 334.104 511.792 333.938 511.625C333.771 511.458 333.531 511.302 333.219 511.156C332.927 511.01 332.542 510.896 332.062 510.812C331.583 510.729 330.969 510.688 330.219 510.688C327.865 510.688 325.823 510.938 324.094 511.438C322.365 511.917 320.938 512.677 319.812 513.719C318.688 514.76 317.854 516.104 317.312 517.75C316.771 519.375 316.5 521.333 316.5 523.625C316.5 524.479 316.51 525.292 316.531 526.062C316.552 526.812 316.583 527.562 316.625 528.312C316.688 529.062 316.75 529.823 316.812 530.594C316.875 531.365 316.938 532.188 317 533.062C317.042 533.729 317.104 534.417 317.188 535.125C317.271 535.833 317.312 536.521 317.312 537.188C317.312 537.375 317.26 537.635 317.156 537.969C317.052 538.302 316.875 538.635 316.625 538.969C316.396 539.281 316.083 539.562 315.688 539.812C315.312 540.042 314.844 540.156 314.281 540.156C313.552 540.156 312.948 540.073 312.469 539.906C312.01 539.74 311.635 539.49 311.344 539.156C311.073 538.802 310.885 538.365 310.781 537.844C310.677 537.302 310.625 536.677 310.625 535.969ZM348.75 535.094C348.75 534.823 348.865 534.458 349.094 534C349.323 533.521 349.604 533.094 349.938 532.719C350.292 532.344 350.677 532.104 351.094 532C351.51 531.875 351.906 532.021 352.281 532.438C352.969 533.208 353.583 533.812 354.125 534.25C354.688 534.688 355.271 535.01 355.875 535.219C356.5 535.427 357.177 535.552 357.906 535.594C358.656 535.635 359.552 535.656 360.594 535.656C361.844 535.656 363.115 535.521 364.406 535.25C365.719 534.958 366.917 534.625 368 534.25C369.083 533.854 369.969 533.448 370.656 533.031C371.344 532.615 371.688 532.281 371.688 532.031C371.688 531.698 371.469 531.354 371.031 531C370.615 530.646 370.042 530.312 369.312 530C368.583 529.688 367.729 529.396 366.75 529.125C365.771 528.833 364.729 528.594 363.625 528.406C362.333 528.24 361.01 528.052 359.656 527.844C358.323 527.635 357.021 527.365 355.75 527.031C354.479 526.698 353.281 526.302 352.156 525.844C351.031 525.365 350.042 524.771 349.188 524.062C348.333 523.354 347.656 522.51 347.156 521.531C346.677 520.552 346.438 519.406 346.438 518.094C346.438 516.677 346.677 515.365 347.156 514.156C347.656 512.948 348.323 511.844 349.156 510.844C350.01 509.844 351 508.958 352.125 508.188C353.271 507.417 354.5 506.771 355.812 506.25C357.125 505.729 358.49 505.333 359.906 505.062C361.323 504.792 362.729 504.656 364.125 504.656C365.583 504.656 366.906 504.844 368.094 505.219C369.302 505.573 370.323 506.052 371.156 506.656C371.99 507.24 372.635 507.917 373.094 508.688C373.552 509.458 373.781 510.26 373.781 511.094C373.781 511.615 373.771 512.208 373.75 512.875C373.729 513.542 373.635 514.177 373.469 514.781C373.323 515.365 373.073 515.865 372.719 516.281C372.365 516.677 371.854 516.875 371.188 516.875C370.771 516.875 370.448 516.792 370.219 516.625C370.01 516.438 369.854 516.219 369.75 515.969C369.646 515.719 369.583 515.448 369.562 515.156C369.542 514.844 369.531 514.562 369.531 514.312C369.531 513.5 369.385 512.844 369.094 512.344C368.823 511.844 368.417 511.448 367.875 511.156C367.333 510.865 366.667 510.667 365.875 510.562C365.104 510.458 364.219 510.406 363.219 510.406C362.531 510.406 361.781 510.5 360.969 510.688C360.156 510.875 359.333 511.135 358.5 511.469C357.688 511.781 356.885 512.167 356.094 512.625C355.323 513.083 354.635 513.594 354.031 514.156C353.448 514.698 352.969 515.271 352.594 515.875C352.24 516.479 352.062 517.104 352.062 517.75C352.062 518.562 352.385 519.24 353.031 519.781C353.677 520.302 354.531 520.74 355.594 521.094C356.656 521.448 357.854 521.75 359.188 522C360.542 522.229 361.917 522.448 363.312 522.656C365.042 522.927 366.74 523.271 368.406 523.688C370.094 524.083 371.604 524.625 372.938 525.312C374.271 526 375.344 526.885 376.156 527.969C376.969 529.031 377.375 530.354 377.375 531.938C377.375 533.062 377.052 534.073 376.406 534.969C375.76 535.844 374.917 536.625 373.875 537.312C372.854 537.979 371.698 538.552 370.406 539.031C369.115 539.51 367.812 539.896 366.5 540.188C365.208 540.5 363.969 540.729 362.781 540.875C361.594 541.021 360.594 541.094 359.781 541.094C359.156 541.094 358.448 541.062 357.656 541C356.865 540.958 356.052 540.865 355.219 540.719C354.406 540.573 353.615 540.365 352.844 540.094C352.073 539.823 351.375 539.469 350.75 539.031C350.146 538.573 349.656 538.031 349.281 537.406C348.927 536.76 348.75 535.99 348.75 535.094ZM386.156 525.156C386.156 522.198 386.583 519.521 387.438 517.125C388.292 514.729 389.552 512.688 391.219 511C392.885 509.312 394.927 508.01 397.344 507.094C399.781 506.177 402.583 505.719 405.75 505.719C406.833 505.719 407.938 505.833 409.062 506.062C410.208 506.292 411.312 506.625 412.375 507.062C413.438 507.5 414.438 508.042 415.375 508.688C416.333 509.333 417.167 510.083 417.875 510.938C418.583 511.771 419.135 512.708 419.531 513.75C419.948 514.771 420.156 515.885 420.156 517.094C420.156 518.031 419.948 518.708 419.531 519.125C419.115 519.542 418.562 519.833 417.875 520C417.271 520.167 416.562 520.323 415.75 520.469C414.958 520.594 414.062 520.812 413.062 521.125L392.156 527.625C392.427 528.896 392.865 529.979 393.469 530.875C394.094 531.771 394.812 532.521 395.625 533.125C396.458 533.729 397.354 534.208 398.312 534.562C399.292 534.917 400.271 535.188 401.25 535.375C402.229 535.542 403.177 535.656 404.094 535.719C405.031 535.76 405.875 535.781 406.625 535.781C407.812 535.781 408.99 535.646 410.156 535.375C411.323 535.104 412.396 534.802 413.375 534.469C414.354 534.135 415.208 533.833 415.938 533.562C416.688 533.292 417.229 533.156 417.562 533.156C418.667 533.156 419.469 533.406 419.969 533.906C420.49 534.406 420.75 535.188 420.75 536.25C420.75 536.938 420.396 537.531 419.688 538.031C419 538.531 418.104 538.948 417 539.281C415.896 539.615 414.667 539.875 413.312 540.062C411.979 540.271 410.667 540.417 409.375 540.5C408.104 540.604 406.938 540.667 405.875 540.688C404.812 540.729 404.01 540.75 403.469 540.75C402.031 540.75 400.594 540.562 399.156 540.188C397.74 539.833 396.385 539.323 395.094 538.656C393.823 537.99 392.635 537.188 391.531 536.25C390.448 535.292 389.5 534.24 388.688 533.094C387.896 531.927 387.271 530.677 386.812 529.344C386.375 528.01 386.156 526.615 386.156 525.156ZM392 522.719C392.979 522.427 394.104 522.094 395.375 521.719C396.646 521.344 397.979 520.948 399.375 520.531C400.792 520.094 402.219 519.646 403.656 519.188C405.115 518.729 406.51 518.281 407.844 517.844C409.198 517.385 410.438 516.958 411.562 516.562C412.708 516.146 413.667 515.76 414.438 515.406C414.208 514.615 413.823 513.938 413.281 513.375C412.74 512.792 412.052 512.323 411.219 511.969C410.406 511.594 409.458 511.323 408.375 511.156C407.292 510.969 406.104 510.875 404.812 510.875C404.229 510.875 403.531 510.958 402.719 511.125C401.927 511.292 401.083 511.562 400.188 511.938C399.312 512.292 398.417 512.771 397.5 513.375C396.604 513.979 395.781 514.719 395.031 515.594C394.281 516.469 393.635 517.5 393.094 518.688C392.552 519.854 392.188 521.198 392 522.719Z" fill="#F8F9FA"/>
<path d="M182.776 336.024C183.16 341.016 183.832 345.528 184.792 349.56C184.408 350.712 182.68 351.864 179.608 353.016C176.728 354.168 174.232 354.744 172.12 354.744C165.208 354.744 160.216 353.688 157.144 351.576C154.264 349.656 152.824 346.68 152.824 342.648C152.824 338.808 153.208 334.968 153.976 331.128C149.752 336.888 143.512 341.688 135.256 345.528C127.192 349.176 120.664 351 115.672 351C102.808 351 92.056 347.256 83.416 339.768C74.968 332.28 70.744 320.28 70.744 303.768C70.744 288.216 74.392 273.624 81.688 259.992C89.176 246.168 99.448 235.128 112.504 226.872C125.56 218.424 140.056 214.2 155.992 214.2C159.064 214.2 163.096 215.064 168.088 216.792C173.08 218.328 178.072 221.112 183.064 225.144C188.248 228.984 192.568 233.976 196.024 240.12C197.56 240.12 199.384 240.888 201.496 242.424C203.608 243.96 204.664 245.496 204.664 247.032C204.664 248.76 204.376 250.488 203.8 252.216L182.776 336.024ZM169.816 255.384C168.664 251.16 166.36 247.608 162.904 244.728C159.64 241.848 156.664 240.408 153.976 240.408C145.144 240.408 136.792 243.576 128.92 249.912C121.24 256.056 115 263.736 110.2 272.952C105.4 282.168 103 290.904 103 299.16C103 307.224 103.96 313.848 105.88 319.032C107.8 324.216 111.544 326.808 117.112 326.808C121.912 326.808 127.384 325.368 133.528 322.488C139.864 319.608 145.432 315.768 150.232 310.968C155.224 305.976 158.488 300.792 160.024 295.416L169.816 255.384Z" fill="#176D76"/>
<path d="M182.776 336.024L180.836 335.537L180.757 335.853L180.782 336.177L182.776 336.024ZM184.792 349.56L186.689 350.192L186.87 349.651L186.738 349.097L184.792 349.56ZM179.608 353.016L178.906 351.143L178.885 351.151L178.865 351.159L179.608 353.016ZM157.144 351.576L158.277 349.928L158.265 349.92L158.253 349.912L157.144 351.576ZM153.976 331.128L155.937 331.52L152.363 329.945L153.976 331.128ZM135.256 345.528L136.08 347.35L136.09 347.346L136.099 347.341L135.256 345.528ZM83.416 339.768L82.0894 341.265L82.0977 341.272L82.1061 341.279L83.416 339.768ZM81.688 259.992L79.9294 259.039L79.9247 259.048L81.688 259.992ZM112.504 226.872L113.573 228.562L113.582 228.557L113.591 228.551L112.504 226.872ZM168.088 216.792L167.434 218.682L167.467 218.693L167.5 218.704L168.088 216.792ZM183.064 225.144L181.807 226.7L181.84 226.726L181.874 226.751L183.064 225.144ZM196.024 240.12L194.281 241.101L194.854 242.12H196.024V240.12ZM201.496 242.424L200.32 244.041L201.496 242.424ZM203.8 252.216L201.903 251.584L201.879 251.656L201.86 251.729L203.8 252.216ZM169.816 255.384L171.759 255.859L171.882 255.357L171.746 254.858L169.816 255.384ZM162.904 244.728L161.581 246.228L161.602 246.246L161.624 246.264L162.904 244.728ZM128.92 249.912L130.169 251.474L130.174 251.47L128.92 249.912ZM110.2 272.952L108.426 272.028L110.2 272.952ZM133.528 322.488L132.7 320.667L132.69 320.672L132.679 320.677L133.528 322.488ZM150.232 310.968L148.818 309.554L150.232 310.968ZM160.024 295.416L161.947 295.965L161.958 295.928L161.967 295.891L160.024 295.416ZM180.782 336.177C181.172 341.253 181.858 345.871 182.846 350.023L186.738 349.097C185.806 345.185 185.148 340.779 184.77 335.871L180.782 336.177ZM182.895 348.928C182.913 348.873 182.83 349.136 182.099 349.624C181.413 350.081 180.371 350.594 178.906 351.143L180.31 354.889C181.917 354.286 183.275 353.647 184.317 352.952C185.314 352.288 186.287 351.399 186.689 350.192L182.895 348.928ZM178.865 351.159C176.121 352.257 173.888 352.744 172.12 352.744V356.744C174.576 356.744 177.335 356.079 180.351 354.873L178.865 351.159ZM172.12 352.744C165.316 352.744 160.835 351.686 158.277 349.928L156.011 353.224C159.597 355.69 165.1 356.744 172.12 356.744V352.744ZM158.253 349.912C156.028 348.429 154.824 346.139 154.824 342.648H150.824C150.824 347.221 152.5 350.883 156.035 353.24L158.253 349.912ZM154.824 342.648C154.824 338.942 155.194 335.234 155.937 331.52L152.015 330.736C151.222 334.702 150.824 338.674 150.824 342.648H154.824ZM152.363 329.945C148.386 335.369 142.445 339.978 134.413 343.715L136.099 347.341C144.579 343.398 151.118 338.407 155.589 332.311L152.363 329.945ZM134.432 343.706C126.457 347.313 120.239 349 115.672 349V353C121.089 353 127.927 351.039 136.08 347.35L134.432 343.706ZM115.672 349C103.225 349 92.9564 345.39 84.7259 338.257L82.1061 341.279C91.1556 349.122 102.391 353 115.672 353V349ZM84.7426 338.271C76.8899 331.311 72.744 319.977 72.744 303.768H68.744C68.744 320.583 73.0461 333.249 82.0894 341.265L84.7426 338.271ZM72.744 303.768C72.744 288.543 76.3117 274.276 83.4513 260.936L79.9247 259.048C72.4724 272.972 68.744 287.889 68.744 303.768H72.744ZM83.4466 260.945C90.7746 247.416 100.811 236.632 113.573 228.562L111.435 225.182C98.0845 233.624 87.5774 244.92 79.9294 259.039L83.4466 260.945ZM113.591 228.551C126.314 220.318 140.431 216.2 155.992 216.2V212.2C139.681 212.2 124.806 216.53 111.417 225.193L113.591 228.551ZM155.992 216.2C158.737 216.2 162.524 216.982 167.434 218.682L168.742 214.902C163.668 213.146 159.391 212.2 155.992 212.2V216.2ZM167.5 218.704C172.2 220.15 176.97 222.792 181.807 226.7L184.321 223.588C179.174 219.432 173.96 216.506 168.676 214.88L167.5 218.704ZM181.874 226.751C186.811 230.408 190.95 235.179 194.281 241.101L197.767 239.139C194.186 232.773 189.685 227.56 184.254 223.537L181.874 226.751ZM196.024 242.12C196.932 242.12 198.334 242.598 200.32 244.041L202.672 240.807C200.434 239.178 198.188 238.12 196.024 238.12V242.12ZM200.32 244.041C202.272 245.461 202.664 246.477 202.664 247.032H206.664C206.664 244.515 204.944 242.459 202.672 240.807L200.32 244.041ZM202.664 247.032C202.664 248.534 202.414 250.048 201.903 251.584L205.697 252.848C206.338 250.928 206.664 248.986 206.664 247.032H202.664ZM201.86 251.729L180.836 335.537L184.716 336.511L205.74 252.703L201.86 251.729ZM171.746 254.858C170.483 250.227 167.946 246.326 164.184 243.192L161.624 246.264C164.774 248.89 166.845 252.093 167.886 255.91L171.746 254.858ZM164.227 243.228C160.811 240.214 157.375 238.408 153.976 238.408V242.408C155.953 242.408 158.469 243.482 161.581 246.228L164.227 243.228ZM153.976 238.408C144.623 238.408 135.839 241.775 127.666 248.354L130.174 251.47C137.745 245.377 145.665 242.408 153.976 242.408V238.408ZM127.671 248.35C119.761 254.678 113.347 262.58 108.426 272.028L111.974 273.876C116.653 264.892 122.719 257.434 130.169 251.474L127.671 248.35ZM108.426 272.028C103.515 281.457 101 290.51 101 299.16H105C105 291.298 107.285 282.879 111.974 273.876L108.426 272.028ZM101 299.16C101 307.362 101.974 314.243 104.005 319.727L107.756 318.337C105.946 313.453 105 307.086 105 299.16H101ZM104.005 319.727C105.076 322.62 106.714 324.933 108.99 326.508C111.264 328.083 114.013 328.808 117.112 328.808V324.808C114.643 324.808 112.736 324.237 111.266 323.22C109.798 322.203 108.604 320.628 107.756 318.337L104.005 319.727ZM117.112 328.808C122.301 328.808 128.07 327.255 134.377 324.299L132.679 320.677C126.698 323.481 121.523 324.808 117.112 324.808V328.808ZM134.356 324.309C140.904 321.332 146.672 317.356 151.646 312.382L148.818 309.554C144.192 314.18 138.824 317.884 132.7 320.667L134.356 324.309ZM151.646 312.382C156.817 307.212 160.296 301.743 161.947 295.965L158.101 294.867C156.68 299.841 153.631 304.74 148.818 309.554L151.646 312.382ZM161.967 295.891L171.759 255.859L167.873 254.909L158.081 294.941L161.967 295.891Z" fill="white"/>
<path d="M311.828 317.016C309.524 323.16 305.012 329.4 298.292 335.736C291.572 341.88 283.028 346.968 272.66 351C262.292 355.032 250.964 357.048 238.676 357.048C219.86 357.048 205.94 353.208 196.916 345.528C187.892 337.656 183.38 327.48 183.38 315C183.38 296.952 187.988 280.248 197.204 264.888C206.42 249.336 218.804 237.048 234.356 228.024C249.908 219 266.516 214.488 284.18 214.488C295.124 214.488 304.148 217.752 311.252 224.28C318.548 230.616 322.196 239.256 322.196 250.2C322.196 254.424 320.468 257.976 317.012 260.856C313.556 263.544 308.948 264.888 303.188 264.888C298.58 264.888 295.412 263.832 293.684 261.72C292.148 259.608 291.38 256.824 291.38 253.368L291.668 246.744C291.668 244.44 290.42 242.616 287.924 241.272C285.428 239.736 282.74 238.968 279.86 238.968C273.908 238.968 265.844 242.52 255.668 249.624C245.684 256.728 236.852 266.136 229.172 277.848C221.684 289.368 217.94 301.752 217.94 315C217.94 320.376 220.052 324.504 224.276 327.384C228.5 330.264 234.74 331.704 242.996 331.704C248.18 331.704 254.132 330.648 260.852 328.536C267.572 326.424 271.796 323.736 273.524 320.472C280.052 308.568 286.004 302.616 291.38 302.616C299.252 302.616 304.532 304.152 307.22 307.224C310.1 310.104 311.636 313.368 311.828 317.016Z" fill="white"/>
<path d="M311.828 317.016L313.701 317.718L313.847 317.328L313.825 316.911L311.828 317.016ZM298.292 335.736L299.642 337.212L299.653 337.202L299.664 337.191L298.292 335.736ZM272.66 351L273.385 352.864H273.385L272.66 351ZM196.916 345.528L195.601 347.035L195.61 347.043L195.62 347.051L196.916 345.528ZM197.204 264.888L198.919 265.917L198.925 265.908L197.204 264.888ZM234.356 228.024L235.36 229.754L234.356 228.024ZM311.252 224.28L309.899 225.753L309.919 225.772L309.941 225.79L311.252 224.28ZM317.012 260.856L318.24 262.435L318.266 262.414L318.292 262.392L317.012 260.856ZM293.684 261.72L292.067 262.896L292.1 262.942L292.136 262.986L293.684 261.72ZM291.38 253.368L289.382 253.281L289.38 253.325V253.368H291.38ZM291.668 246.744L293.666 246.831L293.668 246.787V246.744H291.668ZM287.924 241.272L286.876 242.975L286.925 243.006L286.976 243.033L287.924 241.272ZM255.668 249.624L254.523 247.984L254.516 247.989L254.508 247.994L255.668 249.624ZM229.172 277.848L227.5 276.751L227.495 276.758L229.172 277.848ZM273.524 320.472L271.77 319.51L271.763 319.523L271.756 319.536L273.524 320.472ZM307.22 307.224L305.715 308.541L305.759 308.591L305.806 308.638L307.22 307.224ZM309.955 316.314C307.793 322.08 303.503 328.074 296.92 334.281L299.664 337.191C306.521 330.726 311.255 324.24 313.701 317.718L309.955 316.314ZM296.942 334.26C290.44 340.205 282.122 345.174 271.935 349.136L273.385 352.864C283.934 348.762 292.704 343.555 299.642 337.212L296.942 334.26ZM271.935 349.136C261.821 353.069 250.742 355.048 238.676 355.048V359.048C251.186 359.048 262.763 356.995 273.385 352.864L271.935 349.136ZM238.676 355.048C220.072 355.048 206.715 351.241 198.212 344.005L195.62 347.051C205.165 355.175 219.648 359.048 238.676 359.048V355.048ZM198.231 344.021C189.663 336.547 185.38 326.93 185.38 315H181.38C181.38 328.03 186.121 338.765 195.601 347.035L198.231 344.021ZM185.38 315C185.38 297.312 189.891 280.964 198.919 265.917L195.489 263.859C186.085 279.532 181.38 296.592 181.38 315H185.38ZM198.925 265.908C207.967 250.648 220.105 238.605 235.36 229.754L233.352 226.294C217.503 235.491 204.873 248.024 195.483 263.868L198.925 265.908ZM235.36 229.754C250.613 220.903 266.875 216.488 284.18 216.488V212.488C266.157 212.488 249.203 217.097 233.352 226.294L235.36 229.754ZM284.18 216.488C294.695 216.488 303.214 219.61 309.899 225.753L312.605 222.807C305.082 215.894 295.553 212.488 284.18 212.488V216.488ZM309.941 225.79C316.738 231.693 320.196 239.75 320.196 250.2H324.196C324.196 238.762 320.358 229.539 312.563 222.77L309.941 225.79ZM320.196 250.2C320.196 253.788 318.766 256.791 315.732 259.32L318.292 262.392C322.17 259.161 324.196 255.06 324.196 250.2H320.196ZM315.784 259.277C312.776 261.617 308.644 262.888 303.188 262.888V266.888C309.252 266.888 314.336 265.471 318.24 262.435L315.784 259.277ZM303.188 262.888C298.779 262.888 296.384 261.861 295.232 260.454L292.136 262.986C294.44 265.803 298.381 266.888 303.188 266.888V262.888ZM295.301 260.544C294.083 258.869 293.38 256.537 293.38 253.368H289.38C289.38 257.111 290.213 260.347 292.067 262.896L295.301 260.544ZM293.378 253.455L293.666 246.831L289.67 246.657L289.382 253.281L293.378 253.455ZM293.668 246.744C293.668 243.523 291.839 241.109 288.872 239.511L286.976 243.033C289.001 244.123 289.668 245.357 289.668 246.744H293.668ZM288.972 239.569C286.167 237.842 283.117 236.968 279.86 236.968V240.968C282.363 240.968 284.689 241.63 286.876 242.975L288.972 239.569ZM279.86 236.968C273.245 236.968 264.739 240.852 254.523 247.984L256.813 251.264C266.949 244.188 274.571 240.968 279.86 240.968V236.968ZM254.508 247.994C244.295 255.262 235.297 264.861 227.5 276.751L230.844 278.945C238.407 267.411 247.073 258.194 256.828 251.254L254.508 247.994ZM227.495 276.758C219.805 288.59 215.94 301.35 215.94 315H219.94C219.94 302.154 223.564 290.146 230.849 278.938L227.495 276.758ZM215.94 315C215.94 320.997 218.346 325.762 223.149 329.036L225.403 325.732C221.758 323.246 219.94 319.755 219.94 315H215.94ZM223.149 329.036C227.853 332.243 234.564 333.704 242.996 333.704V329.704C234.916 329.704 229.147 328.285 225.403 325.732L223.149 329.036ZM242.996 333.704C248.442 333.704 254.602 332.597 261.452 330.444L260.252 326.628C253.662 328.699 247.918 329.704 242.996 329.704V333.704ZM261.452 330.444C268.27 328.301 273.173 325.41 275.292 321.408L271.756 319.536C270.419 322.062 266.874 324.547 260.252 326.628L261.452 330.444ZM275.278 321.434C278.499 315.559 281.513 311.28 284.298 308.494C287.105 305.687 289.456 304.616 291.38 304.616V300.616C287.928 300.616 284.615 302.521 281.47 305.666C278.303 308.832 275.077 313.481 271.77 319.51L275.278 321.434ZM291.38 304.616C299.158 304.616 303.638 306.167 305.715 308.541L308.725 305.907C305.426 302.137 299.346 300.616 291.38 300.616V304.616ZM305.806 308.638C308.38 311.212 309.668 314.024 309.831 317.121L313.825 316.911C313.604 312.712 311.82 308.996 308.634 305.81L305.806 308.638Z" fill="#176D76"/>
<path d="M292.797 364.272C270.513 384.935 235.87 385.638 206.848 387.089C191.152 387.874 176.029 386.755 160.528 384.43C157.118 383.918 151.838 381.702 148.347 382.972C142.946 384.935 144.348 395.256 144.916 399.441C146.093 408.106 151.655 415.469 158.555 420.542C169.833 428.835 183.336 435.637 197.069 438.384" stroke="white" stroke-width="3" stroke-linecap="round"/>
</svg>
