<svg width="425" height="356" viewBox="0 0 425 356" fill="none" xmlns="http://www.w3.org/2000/svg">
<path d="M5.57812 323.769C5.57812 322.644 5.76562 321.597 6.14062 320.628C6.51562 319.659 6.92188 318.753 7.35938 317.909C7.42188 317.784 7.51562 317.597 7.64062 317.347C7.79688 317.066 8.0625 316.503 8.4375 315.659C8.8125 314.784 9.32812 313.487 9.98438 311.769C10.6719 310.05 11.5781 307.659 12.7031 304.597C12.6719 304.222 12.6406 303.862 12.6094 303.519C12.6094 303.175 12.6094 302.847 12.6094 302.534C12.6094 301.253 12.8125 300.175 13.2188 299.3C13.6562 298.394 14.4688 297.519 15.6562 296.675L27.5625 271.831C28.0312 270.862 28.5469 269.831 29.1094 268.737C29.6719 267.612 30.2969 266.581 30.9844 265.644C31.7031 264.675 32.4844 263.878 33.3281 263.253C34.2031 262.597 35.1562 262.269 36.1875 262.269C36.9688 262.269 37.8438 262.737 38.8125 263.675C39.7812 264.581 40.7656 265.769 41.7656 267.237C42.7969 268.675 43.8125 270.284 44.8125 272.066C45.8438 273.816 46.7812 275.519 47.625 277.175C48.5 278.831 49.2656 280.347 49.9219 281.722C50.5781 283.066 51.0469 284.05 51.3281 284.675C52.8906 288.175 54.0625 290.847 54.8438 292.691C55.625 294.503 56.2344 295.659 56.6719 296.159C58.1094 297.066 59.1094 298.128 59.6719 299.347C60.2344 300.534 60.5156 302.097 60.5156 304.034C61.3906 306.253 62.1719 308.487 62.8594 310.737C63.5781 312.956 64.3594 315.003 65.2031 316.878C65.8281 318.253 66.4688 319.394 67.125 320.3C67.7812 321.175 68.3594 322.019 68.8594 322.831C69.3906 323.612 69.8125 324.441 70.125 325.316C70.4688 326.159 70.6406 327.253 70.6406 328.597C70.6406 329.503 70.4219 330.191 69.9844 330.659C69.5469 331.159 69.0156 331.519 68.3906 331.737C67.7969 331.987 67.1875 332.128 66.5625 332.159C65.9375 332.191 65.4375 332.206 65.0625 332.206C64.0938 332.206 63.125 331.659 62.1562 330.566C61.1875 329.472 60.2812 328.175 59.4375 326.675C58.5938 325.144 57.8438 323.581 57.1875 321.987C56.5625 320.394 56.1094 319.081 55.8281 318.05C55.4844 316.894 55.125 315.675 54.75 314.394C54.4062 313.112 54.0625 311.925 53.7188 310.831C53.375 309.706 53.0156 308.753 52.6406 307.972C52.2969 307.191 51.9531 306.706 51.6094 306.519C51.1094 306.081 50.5469 305.8 49.9219 305.675C49.2969 305.519 48.4688 305.441 47.4375 305.441C45.6562 305.441 43.8594 305.441 42.0469 305.441C40.2344 305.409 38.375 305.394 36.4688 305.394C34.5625 305.362 32.5781 305.347 30.5156 305.347C28.4844 305.316 26.3281 305.3 24.0469 305.3C23.4219 305.3 22.9062 305.362 22.5 305.487C22.125 305.581 21.7656 305.831 21.4219 306.237C21.1094 306.612 20.7812 307.175 20.4375 307.925C20.125 308.675 19.75 309.706 19.3125 311.019L15.5625 321.097C15.2812 322.097 15.0156 323.034 14.7656 323.909C14.5156 324.753 14.2812 325.347 14.0625 325.691C13.7812 326.159 13.4688 326.534 13.125 326.816C12.8125 327.066 12.4844 327.253 12.1406 327.378C11.7969 327.503 11.4375 327.581 11.0625 327.612C10.6875 327.612 10.3125 327.612 9.9375 327.612C8.59375 327.612 7.53125 327.347 6.75 326.816C5.96875 326.253 5.57812 325.237 5.57812 323.769ZM24.9844 296.769C27.9531 296.8 30.3906 296.831 32.2969 296.862C34.2344 296.894 35.8125 296.925 37.0312 296.956C38.25 296.987 39.2031 297.019 39.8906 297.05C40.5781 297.05 41.1875 297.05 41.7188 297.05C42.0938 297.05 42.4531 297.05 42.7969 297.05C43.1406 297.019 43.5312 297.003 43.9688 297.003C44.4375 296.972 44.9688 296.941 45.5625 296.909C46.1875 296.878 46.9375 296.831 47.8125 296.769C47.375 295.519 46.7031 293.941 45.7969 292.034C44.9219 290.128 43.9531 288.159 42.8906 286.128C41.8594 284.066 40.8281 282.066 39.7969 280.128C38.7656 278.191 37.9062 276.55 37.2188 275.206C36.5938 274.019 36.0938 273.425 35.7188 273.425C35.5312 273.425 35.1719 273.894 34.6406 274.831C34.1094 275.737 33.4844 276.909 32.7656 278.347C32.0781 279.784 31.3438 281.409 30.5625 283.222C29.7812 285.003 29.0156 286.753 28.2656 288.472C27.5469 290.191 26.8906 291.8 26.2969 293.3C25.7031 294.769 25.2656 295.925 24.9844 296.769ZM80.8438 322.269C80.7396 321.79 80.6875 321.269 80.6875 320.706C80.6875 320.144 80.6875 319.592 80.6875 319.05C80.6875 317.654 80.6562 316.279 80.5938 314.925C80.5312 313.55 80.4583 312.185 80.375 310.831C80.3125 309.477 80.25 308.112 80.1875 306.737C80.1458 305.362 80.1458 303.967 80.1875 302.55L80.4375 286.237C80.4375 284.862 80.6458 283.748 81.0625 282.894C81.4792 282.04 82.2292 281.612 83.3125 281.612C83.7083 281.612 84.0625 281.696 84.375 281.862C84.7083 282.029 84.9896 282.248 85.2188 282.519C85.4479 282.769 85.625 283.05 85.75 283.362C85.875 283.675 85.9375 283.977 85.9375 284.269V307.206C85.9375 309.477 85.9792 311.758 86.0625 314.05C86.1667 316.321 86.4271 318.623 86.8438 320.956C86.9062 321.331 87 321.644 87.125 321.894C87.2708 322.123 87.4271 322.31 87.5938 322.456C87.7812 322.581 87.9792 322.665 88.1875 322.706C88.3958 322.748 88.5938 322.769 88.7812 322.769C89.0938 322.769 89.3542 322.706 89.5625 322.581C89.7708 322.435 89.9271 322.3 90.0312 322.175C90.1562 322.029 90.2812 321.894 90.4062 321.769C90.5521 321.623 90.7083 321.498 90.875 321.394C91.0417 321.269 91.2396 321.175 91.4688 321.112C91.7188 321.05 92.0104 321.019 92.3438 321.019C92.7188 321.019 93.0417 321.102 93.3125 321.269C93.5833 321.415 93.8125 321.612 94 321.862C94.1875 322.112 94.3229 322.394 94.4062 322.706C94.5104 323.019 94.5625 323.331 94.5625 323.644C94.5625 324.29 94.3646 324.883 93.9688 325.425C93.5938 325.946 93.1146 326.394 92.5312 326.769C91.9479 327.144 91.3125 327.435 90.625 327.644C89.9375 327.852 89.2917 327.956 88.6875 327.956C86.5208 327.998 84.7708 327.54 83.4375 326.581C82.125 325.602 81.2604 324.165 80.8438 322.269ZM102.656 322.269C102.552 321.79 102.5 321.269 102.5 320.706C102.5 320.144 102.5 319.592 102.5 319.05C102.5 317.654 102.469 316.279 102.406 314.925C102.344 313.55 102.271 312.185 102.188 310.831C102.125 309.477 102.062 308.112 102 306.737C101.958 305.362 101.958 303.967 102 302.55L102.25 286.237C102.25 284.862 102.458 283.748 102.875 282.894C103.292 282.04 104.042 281.612 105.125 281.612C105.521 281.612 105.875 281.696 106.188 281.862C106.521 282.029 106.802 282.248 107.031 282.519C107.26 282.769 107.438 283.05 107.562 283.362C107.688 283.675 107.75 283.977 107.75 284.269V307.206C107.75 309.477 107.792 311.758 107.875 314.05C107.979 316.321 108.24 318.623 108.656 320.956C108.719 321.331 108.812 321.644 108.938 321.894C109.083 322.123 109.24 322.31 109.406 322.456C109.594 322.581 109.792 322.665 110 322.706C110.208 322.748 110.406 322.769 110.594 322.769C110.906 322.769 111.167 322.706 111.375 322.581C111.583 322.435 111.74 322.3 111.844 322.175C111.969 322.029 112.094 321.894 112.219 321.769C112.365 321.623 112.521 321.498 112.688 321.394C112.854 321.269 113.052 321.175 113.281 321.112C113.531 321.05 113.823 321.019 114.156 321.019C114.531 321.019 114.854 321.102 115.125 321.269C115.396 321.415 115.625 321.612 115.812 321.862C116 322.112 116.135 322.394 116.219 322.706C116.323 323.019 116.375 323.331 116.375 323.644C116.375 324.29 116.177 324.883 115.781 325.425C115.406 325.946 114.927 326.394 114.344 326.769C113.76 327.144 113.125 327.435 112.438 327.644C111.75 327.852 111.104 327.956 110.5 327.956C108.333 327.998 106.583 327.54 105.25 326.581C103.938 325.602 103.073 324.165 102.656 322.269ZM129.531 324.55C129.531 324.362 129.5 324.04 129.438 323.581C129.375 323.102 129.302 322.54 129.219 321.894C129.135 321.248 129.062 320.56 129 319.831C128.938 319.081 128.906 318.342 128.906 317.612C128.906 317.029 128.917 316.154 128.938 314.987C128.958 313.821 128.979 312.487 129 310.987C129.021 309.467 129.042 307.831 129.062 306.081C129.083 304.31 129.094 302.529 129.094 300.737H128.812L122.969 301.081C122.552 301.081 122.167 300.998 121.812 300.831C121.458 300.665 121.156 300.456 120.906 300.206C120.656 299.935 120.458 299.644 120.312 299.331C120.167 298.998 120.094 298.665 120.094 298.331C120.094 297.935 120.167 297.56 120.312 297.206C120.458 296.831 120.656 296.508 120.906 296.237C121.177 295.946 121.49 295.727 121.844 295.581C122.198 295.415 122.573 295.331 122.969 295.331L129.031 295.456C129.073 295.456 129.125 295.467 129.188 295.487C129.25 295.487 129.302 295.487 129.344 295.487C129.427 294.967 129.521 294.415 129.625 293.831C129.729 293.227 129.823 292.665 129.906 292.144C130.01 291.602 130.104 291.133 130.188 290.737C130.271 290.321 130.333 290.04 130.375 289.894C131.271 286.435 132.885 283.81 135.219 282.019C137.552 280.227 140.458 279.331 143.938 279.331C144.292 279.331 144.76 279.383 145.344 279.487C145.948 279.592 146.583 279.748 147.25 279.956C147.917 280.165 148.594 280.415 149.281 280.706C149.969 280.998 150.583 281.331 151.125 281.706C151.688 282.081 152.146 282.498 152.5 282.956C152.854 283.394 153.031 283.862 153.031 284.362C153.031 284.55 153.01 284.8 152.969 285.112C152.948 285.425 152.875 285.737 152.75 286.05C152.646 286.342 152.479 286.592 152.25 286.8C152.042 287.008 151.74 287.112 151.344 287.112C150.573 287.112 149.938 286.987 149.438 286.737C148.958 286.487 148.479 286.206 148 285.894C147.542 285.581 147.01 285.3 146.406 285.05C145.823 284.8 145.031 284.675 144.031 284.675C142.281 284.675 140.865 284.977 139.781 285.581C138.719 286.185 137.875 286.998 137.25 288.019C136.646 289.019 136.208 290.175 135.938 291.487C135.688 292.8 135.51 294.165 135.406 295.581C136.24 295.602 136.969 295.612 137.594 295.612C138.24 295.612 138.812 295.612 139.312 295.612C139.812 295.612 140.26 295.612 140.656 295.612C141.052 295.592 141.438 295.581 141.812 295.581C142.417 295.581 143.031 295.571 143.656 295.55C144.281 295.529 144.896 295.498 145.5 295.456H145.562C145.938 295.415 146.323 295.383 146.719 295.362C147.135 295.342 147.552 295.331 147.969 295.331C148.24 295.331 148.521 295.373 148.812 295.456C149.125 295.519 149.406 295.654 149.656 295.862C149.906 296.05 150.104 296.321 150.25 296.675C150.417 297.008 150.5 297.446 150.5 297.987C150.5 298.737 150.365 299.321 150.094 299.737C149.844 300.133 149.531 300.435 149.156 300.644C148.781 300.852 148.375 300.977 147.938 301.019C147.521 301.06 147.156 301.081 146.844 301.081C146.448 301.081 145.99 301.06 145.469 301.019C144.948 300.977 144.292 300.925 143.5 300.862C142.708 300.8 141.75 300.748 140.625 300.706C139.5 300.665 138.146 300.644 136.562 300.644C136.438 300.644 136.281 300.633 136.094 300.612C135.927 300.592 135.615 300.571 135.156 300.55C135.115 302.112 135.083 303.769 135.062 305.519C135.042 307.269 135.031 309.133 135.031 311.112C135.031 312.05 135.01 312.956 134.969 313.831C134.927 314.706 134.906 315.581 134.906 316.456C134.906 316.852 134.917 317.269 134.938 317.706C134.979 318.144 135.042 318.675 135.125 319.3C135.208 319.925 135.323 320.685 135.469 321.581C135.615 322.477 135.792 323.592 136 324.925C136.188 326.112 136.062 326.946 135.625 327.425C135.188 327.883 134.594 328.112 133.844 328.112C132.99 328.112 132.281 328.05 131.719 327.925C131.177 327.821 130.74 327.633 130.406 327.362C130.094 327.092 129.865 326.727 129.719 326.269C129.594 325.81 129.531 325.237 129.531 324.55ZM159.578 302.862C159.578 301.144 159.703 299.331 159.953 297.425C160.203 295.487 160.547 293.55 160.984 291.612C161.422 289.644 161.906 287.706 162.438 285.8C163 283.894 163.594 282.097 164.219 280.409C164.969 278.409 166.031 276.347 167.406 274.222C168.812 272.097 170.5 270.175 172.469 268.456C174.469 266.706 176.734 265.269 179.266 264.144C181.828 263.019 184.641 262.456 187.703 262.456C190.391 262.456 193.047 262.847 195.672 263.628C198.328 264.409 200.703 265.566 202.797 267.097C204.922 268.628 206.641 270.519 207.953 272.769C209.266 274.987 209.922 277.566 209.922 280.503C209.922 281.034 209.859 281.659 209.734 282.378C209.609 283.066 209.391 283.737 209.078 284.394C208.797 285.019 208.391 285.55 207.859 285.987C207.328 286.425 206.641 286.644 205.797 286.644C204.828 286.644 204.078 286.378 203.547 285.847C203.047 285.284 202.672 284.597 202.422 283.784C202.203 282.972 202.062 282.081 202 281.112C201.969 280.112 201.953 279.175 201.953 278.3C201.953 277.237 201.5 276.237 200.594 275.3C199.688 274.331 198.547 273.487 197.172 272.769C195.797 272.05 194.297 271.487 192.672 271.081C191.047 270.644 189.531 270.425 188.125 270.425C185.5 270.425 183.172 271.034 181.141 272.253C179.109 273.472 177.344 275.066 175.844 277.034C174.344 279.003 173.078 281.206 172.047 283.644C171.047 286.081 170.234 288.519 169.609 290.956C168.984 293.362 168.531 295.659 168.25 297.847C168 300.034 167.875 301.831 167.875 303.237C167.875 306.019 168.469 308.503 169.656 310.691C170.844 312.878 172.406 314.737 174.344 316.269C176.281 317.769 178.469 318.925 180.906 319.737C183.344 320.519 185.828 320.909 188.359 320.909C189.609 320.909 191.078 320.862 192.766 320.769C194.453 320.675 196.172 320.519 197.922 320.3C199.672 320.05 201.375 319.722 203.031 319.316C204.719 318.909 206.156 318.409 207.344 317.816C207.844 317.566 208.266 317.269 208.609 316.925C208.953 316.55 209.297 316.206 209.641 315.894C210.016 315.55 210.422 315.269 210.859 315.05C211.328 314.8 211.906 314.675 212.594 314.675C213.938 314.675 215 315.128 215.781 316.034C216.594 316.941 217 318.05 217 319.362C217 320.237 216.891 320.956 216.672 321.519C216.453 322.05 216.078 322.534 215.547 322.972C214.359 323.972 212.719 324.831 210.625 325.55C208.562 326.269 206.312 326.862 203.875 327.331C201.438 327.8 198.953 328.144 196.422 328.362C193.922 328.581 191.625 328.691 189.531 328.691C187.094 328.691 184.656 328.534 182.219 328.222C179.812 327.909 177.5 327.394 175.281 326.675C173.062 325.925 170.984 324.925 169.047 323.675C167.141 322.394 165.484 320.8 164.078 318.894C162.672 316.956 161.562 314.675 160.75 312.05C159.969 309.425 159.578 306.362 159.578 302.862ZM223.969 311.175C223.969 307.946 224.49 305.206 225.531 302.956C226.573 300.706 227.938 298.883 229.625 297.487C231.333 296.071 233.26 295.05 235.406 294.425C237.573 293.779 239.781 293.456 242.031 293.456C244.635 293.456 246.969 293.883 249.031 294.737C251.115 295.592 252.875 296.821 254.312 298.425C255.75 300.029 256.854 301.977 257.625 304.269C258.396 306.54 258.781 309.092 258.781 311.925C258.781 313.571 258.562 315.123 258.125 316.581C257.688 318.04 257.083 319.394 256.312 320.644C255.542 321.873 254.615 322.977 253.531 323.956C252.469 324.935 251.302 325.779 250.031 326.487C248.76 327.175 247.417 327.696 246 328.05C244.583 328.425 243.146 328.612 241.688 328.612C240.104 328.612 238.562 328.362 237.062 327.862C235.583 327.383 234.188 326.717 232.875 325.862C231.562 325.008 230.354 324.019 229.25 322.894C228.167 321.748 227.229 320.529 226.438 319.237C225.667 317.946 225.062 316.612 224.625 315.237C224.188 313.862 223.969 312.508 223.969 311.175ZM229.375 310.394C229.375 311.935 229.708 313.487 230.375 315.05C231.042 316.592 231.917 317.987 233 319.237C234.104 320.487 235.354 321.508 236.75 322.3C238.167 323.071 239.604 323.456 241.062 323.456C242.646 323.456 244.177 323.185 245.656 322.644C247.156 322.102 248.469 321.31 249.594 320.269C250.74 319.227 251.656 317.956 252.344 316.456C253.031 314.956 253.375 313.248 253.375 311.331C253.375 309.456 253.115 307.748 252.594 306.206C252.094 304.644 251.396 303.3 250.5 302.175C249.604 301.05 248.531 300.185 247.281 299.581C246.031 298.956 244.677 298.644 243.219 298.644C241.594 298.644 239.958 298.904 238.312 299.425C236.667 299.925 235.177 300.675 233.844 301.675C232.531 302.654 231.458 303.873 230.625 305.331C229.792 306.79 229.375 308.477 229.375 310.394ZM267.781 309.769C267.781 309.123 267.802 308.394 267.844 307.581C267.885 306.769 267.948 305.925 268.031 305.05C268.115 304.175 268.208 303.29 268.312 302.394C268.438 301.477 268.573 300.602 268.719 299.769C268.865 298.915 269.021 298.133 269.188 297.425C269.375 296.696 269.562 296.071 269.75 295.55C269.979 294.987 270.344 294.529 270.844 294.175C271.344 293.8 272.01 293.612 272.844 293.612C273.594 293.612 274.188 293.883 274.625 294.425C275.083 294.967 275.312 295.612 275.312 296.362C275.312 296.487 275.208 296.883 275 297.55C274.812 298.196 274.594 299.071 274.344 300.175C274.115 301.258 273.896 302.55 273.688 304.05C273.5 305.529 273.406 307.154 273.406 308.925C273.406 309.612 273.438 310.456 273.5 311.456C273.583 312.456 273.729 313.508 273.938 314.612C274.146 315.696 274.438 316.79 274.812 317.894C275.188 318.977 275.688 319.956 276.312 320.831C276.958 321.706 277.74 322.415 278.656 322.956C279.573 323.498 280.667 323.769 281.938 323.769C283.021 323.769 284.021 323.602 284.938 323.269C285.854 322.935 286.688 322.508 287.438 321.987C288.208 321.446 288.896 320.842 289.5 320.175C290.125 319.508 290.677 318.842 291.156 318.175C291.656 317.508 292.083 316.883 292.438 316.3C292.812 315.717 293.135 315.227 293.406 314.831C293.531 313.623 293.625 312.56 293.688 311.644C293.75 310.706 293.792 309.852 293.812 309.081C293.854 308.31 293.875 307.592 293.875 306.925C293.896 306.237 293.906 305.54 293.906 304.831C293.906 304.102 293.896 303.331 293.875 302.519C293.875 301.685 293.875 300.737 293.875 299.675V295.956C293.875 295.519 293.969 295.154 294.156 294.862C294.365 294.571 294.615 294.331 294.906 294.144C295.198 293.956 295.521 293.831 295.875 293.769C296.229 293.685 296.552 293.644 296.844 293.644C297.094 293.644 297.365 293.685 297.656 293.769C297.948 293.852 298.219 293.977 298.469 294.144C298.719 294.31 298.927 294.54 299.094 294.831C299.26 295.102 299.344 295.425 299.344 295.8L299.281 325.456C299.281 326.519 299.073 327.237 298.656 327.612C298.24 327.967 297.604 328.144 296.75 328.144C295.979 328.144 295.375 328.081 294.938 327.956C294.521 327.852 294.208 327.644 294 327.331C293.812 327.019 293.698 326.592 293.656 326.05C293.615 325.508 293.594 324.81 293.594 323.956V321.831C293.052 322.81 292.438 323.748 291.75 324.644C291.083 325.519 290.302 326.29 289.406 326.956C288.51 327.623 287.479 328.154 286.312 328.55C285.146 328.946 283.812 329.144 282.312 329.144C280.146 329.144 278.281 328.81 276.719 328.144C275.177 327.498 273.865 326.644 272.781 325.581C271.719 324.498 270.854 323.269 270.188 321.894C269.542 320.519 269.031 319.112 268.656 317.675C268.302 316.237 268.062 314.831 267.938 313.456C267.833 312.081 267.781 310.852 267.781 309.769ZM310.625 323.769C310.625 323.227 310.656 322.665 310.719 322.081C310.781 321.498 310.812 320.935 310.812 320.394C310.812 319.123 310.75 317.8 310.625 316.425C310.521 315.321 310.458 314.165 310.438 312.956C310.438 311.748 310.479 310.685 310.562 309.769L311.594 297.425C311.677 296.425 311.927 295.633 312.344 295.05C312.781 294.446 313.552 294.144 314.656 294.144C315.115 294.144 315.51 294.227 315.844 294.394C316.198 294.54 316.49 294.737 316.719 294.987C316.969 295.237 317.167 295.519 317.312 295.831C317.458 296.123 317.562 296.415 317.625 296.706C318.479 296.06 319.417 295.508 320.438 295.05C321.458 294.592 322.51 294.217 323.594 293.925C324.677 293.633 325.771 293.425 326.875 293.3C327.979 293.154 329.052 293.081 330.094 293.081C330.969 293.081 331.969 293.144 333.094 293.269C334.219 293.373 335.281 293.612 336.281 293.987C337.281 294.362 338.125 294.904 338.812 295.612C339.5 296.321 339.844 297.279 339.844 298.487C339.844 299.342 339.573 300.04 339.031 300.581C338.51 301.102 337.812 301.362 336.938 301.362C336.271 301.362 335.75 301.217 335.375 300.925C335 300.612 334.667 300.269 334.375 299.894C334.25 299.748 334.104 299.592 333.938 299.425C333.771 299.258 333.531 299.102 333.219 298.956C332.927 298.81 332.542 298.696 332.062 298.612C331.583 298.529 330.969 298.487 330.219 298.487C327.865 298.487 325.823 298.737 324.094 299.237C322.365 299.717 320.938 300.477 319.812 301.519C318.688 302.56 317.854 303.904 317.312 305.55C316.771 307.175 316.5 309.133 316.5 311.425C316.5 312.279 316.51 313.092 316.531 313.862C316.552 314.612 316.583 315.362 316.625 316.112C316.688 316.862 316.75 317.623 316.812 318.394C316.875 319.165 316.938 319.987 317 320.862C317.042 321.529 317.104 322.217 317.188 322.925C317.271 323.633 317.312 324.321 317.312 324.987C317.312 325.175 317.26 325.435 317.156 325.769C317.052 326.102 316.875 326.435 316.625 326.769C316.396 327.081 316.083 327.362 315.688 327.612C315.312 327.842 314.844 327.956 314.281 327.956C313.552 327.956 312.948 327.873 312.469 327.706C312.01 327.54 311.635 327.29 311.344 326.956C311.073 326.602 310.885 326.165 310.781 325.644C310.677 325.102 310.625 324.477 310.625 323.769ZM348.75 322.894C348.75 322.623 348.865 322.258 349.094 321.8C349.323 321.321 349.604 320.894 349.938 320.519C350.292 320.144 350.677 319.904 351.094 319.8C351.51 319.675 351.906 319.821 352.281 320.237C352.969 321.008 353.583 321.612 354.125 322.05C354.688 322.487 355.271 322.81 355.875 323.019C356.5 323.227 357.177 323.352 357.906 323.394C358.656 323.435 359.552 323.456 360.594 323.456C361.844 323.456 363.115 323.321 364.406 323.05C365.719 322.758 366.917 322.425 368 322.05C369.083 321.654 369.969 321.248 370.656 320.831C371.344 320.415 371.688 320.081 371.688 319.831C371.688 319.498 371.469 319.154 371.031 318.8C370.615 318.446 370.042 318.112 369.312 317.8C368.583 317.487 367.729 317.196 366.75 316.925C365.771 316.633 364.729 316.394 363.625 316.206C362.333 316.04 361.01 315.852 359.656 315.644C358.323 315.435 357.021 315.165 355.75 314.831C354.479 314.498 353.281 314.102 352.156 313.644C351.031 313.165 350.042 312.571 349.188 311.862C348.333 311.154 347.656 310.31 347.156 309.331C346.677 308.352 346.438 307.206 346.438 305.894C346.438 304.477 346.677 303.165 347.156 301.956C347.656 300.748 348.323 299.644 349.156 298.644C350.01 297.644 351 296.758 352.125 295.987C353.271 295.217 354.5 294.571 355.812 294.05C357.125 293.529 358.49 293.133 359.906 292.862C361.323 292.592 362.729 292.456 364.125 292.456C365.583 292.456 366.906 292.644 368.094 293.019C369.302 293.373 370.323 293.852 371.156 294.456C371.99 295.04 372.635 295.717 373.094 296.487C373.552 297.258 373.781 298.06 373.781 298.894C373.781 299.415 373.771 300.008 373.75 300.675C373.729 301.342 373.635 301.977 373.469 302.581C373.323 303.165 373.073 303.665 372.719 304.081C372.365 304.477 371.854 304.675 371.188 304.675C370.771 304.675 370.448 304.592 370.219 304.425C370.01 304.237 369.854 304.019 369.75 303.769C369.646 303.519 369.583 303.248 369.562 302.956C369.542 302.644 369.531 302.362 369.531 302.112C369.531 301.3 369.385 300.644 369.094 300.144C368.823 299.644 368.417 299.248 367.875 298.956C367.333 298.665 366.667 298.467 365.875 298.362C365.104 298.258 364.219 298.206 363.219 298.206C362.531 298.206 361.781 298.3 360.969 298.487C360.156 298.675 359.333 298.935 358.5 299.269C357.688 299.581 356.885 299.967 356.094 300.425C355.323 300.883 354.635 301.394 354.031 301.956C353.448 302.498 352.969 303.071 352.594 303.675C352.24 304.279 352.062 304.904 352.062 305.55C352.062 306.362 352.385 307.04 353.031 307.581C353.677 308.102 354.531 308.54 355.594 308.894C356.656 309.248 357.854 309.55 359.188 309.8C360.542 310.029 361.917 310.248 363.312 310.456C365.042 310.727 366.74 311.071 368.406 311.487C370.094 311.883 371.604 312.425 372.938 313.112C374.271 313.8 375.344 314.685 376.156 315.769C376.969 316.831 377.375 318.154 377.375 319.737C377.375 320.862 377.052 321.873 376.406 322.769C375.76 323.644 374.917 324.425 373.875 325.112C372.854 325.779 371.698 326.352 370.406 326.831C369.115 327.31 367.812 327.696 366.5 327.987C365.208 328.3 363.969 328.529 362.781 328.675C361.594 328.821 360.594 328.894 359.781 328.894C359.156 328.894 358.448 328.862 357.656 328.8C356.865 328.758 356.052 328.665 355.219 328.519C354.406 328.373 353.615 328.165 352.844 327.894C352.073 327.623 351.375 327.269 350.75 326.831C350.146 326.373 349.656 325.831 349.281 325.206C348.927 324.56 348.75 323.79 348.75 322.894ZM386.156 312.956C386.156 309.998 386.583 307.321 387.438 304.925C388.292 302.529 389.552 300.487 391.219 298.8C392.885 297.112 394.927 295.81 397.344 294.894C399.781 293.977 402.583 293.519 405.75 293.519C406.833 293.519 407.938 293.633 409.062 293.862C410.208 294.092 411.312 294.425 412.375 294.862C413.438 295.3 414.438 295.842 415.375 296.487C416.333 297.133 417.167 297.883 417.875 298.737C418.583 299.571 419.135 300.508 419.531 301.55C419.948 302.571 420.156 303.685 420.156 304.894C420.156 305.831 419.948 306.508 419.531 306.925C419.115 307.342 418.562 307.633 417.875 307.8C417.271 307.967 416.562 308.123 415.75 308.269C414.958 308.394 414.062 308.612 413.062 308.925L392.156 315.425C392.427 316.696 392.865 317.779 393.469 318.675C394.094 319.571 394.812 320.321 395.625 320.925C396.458 321.529 397.354 322.008 398.312 322.362C399.292 322.717 400.271 322.987 401.25 323.175C402.229 323.342 403.177 323.456 404.094 323.519C405.031 323.56 405.875 323.581 406.625 323.581C407.812 323.581 408.99 323.446 410.156 323.175C411.323 322.904 412.396 322.602 413.375 322.269C414.354 321.935 415.208 321.633 415.938 321.362C416.688 321.092 417.229 320.956 417.562 320.956C418.667 320.956 419.469 321.206 419.969 321.706C420.49 322.206 420.75 322.987 420.75 324.05C420.75 324.737 420.396 325.331 419.688 325.831C419 326.331 418.104 326.748 417 327.081C415.896 327.415 414.667 327.675 413.312 327.862C411.979 328.071 410.667 328.217 409.375 328.3C408.104 328.404 406.938 328.467 405.875 328.487C404.812 328.529 404.01 328.55 403.469 328.55C402.031 328.55 400.594 328.362 399.156 327.987C397.74 327.633 396.385 327.123 395.094 326.456C393.823 325.79 392.635 324.987 391.531 324.05C390.448 323.092 389.5 322.04 388.688 320.894C387.896 319.727 387.271 318.477 386.812 317.144C386.375 315.81 386.156 314.415 386.156 312.956ZM392 310.519C392.979 310.227 394.104 309.894 395.375 309.519C396.646 309.144 397.979 308.748 399.375 308.331C400.792 307.894 402.219 307.446 403.656 306.987C405.115 306.529 406.51 306.081 407.844 305.644C409.198 305.185 410.438 304.758 411.562 304.362C412.708 303.946 413.667 303.56 414.438 303.206C414.208 302.415 413.823 301.737 413.281 301.175C412.74 300.592 412.052 300.123 411.219 299.769C410.406 299.394 409.458 299.123 408.375 298.956C407.292 298.769 406.104 298.675 404.812 298.675C404.229 298.675 403.531 298.758 402.719 298.925C401.927 299.092 401.083 299.362 400.188 299.737C399.312 300.092 398.417 300.571 397.5 301.175C396.604 301.779 395.781 302.519 395.031 303.394C394.281 304.269 393.635 305.3 393.094 306.487C392.552 307.654 392.188 308.998 392 310.519Z" fill="#176D76"/>
<path d="M185.741 137.676L185.831 137.406L185.765 137.128C184.829 133.2 184.168 128.795 183.786 123.909L204.761 40.2958C205.361 38.4834 205.664 36.6609 205.664 34.832C205.664 32.8055 204.276 31.0094 202.084 29.4153C200.141 28.0023 198.31 27.1228 196.623 26.951C193.154 20.9202 188.84 15.9817 183.676 12.1529C178.618 8.07006 173.526 5.22165 168.399 3.64137C163.373 1.9029 159.224 1 155.992 1C139.87 1 125.186 5.27605 111.965 13.8296C98.764 22.1784 88.3759 33.3456 80.8087 47.3157L80.8063 47.3201C73.4322 61.0982 69.744 75.8524 69.744 91.568C69.744 108.231 74.0071 120.565 82.7527 128.316L82.7527 128.316L82.7611 128.324C91.6058 135.989 102.6 139.8 115.672 139.8C120.877 139.8 127.56 137.907 135.668 134.239L135.678 134.235C142.61 131.01 148.185 127.097 152.366 122.478C152.005 125.134 151.824 127.791 151.824 130.448C151.824 134.748 153.38 138.066 156.584 140.204C159.913 142.49 165.158 143.544 172.12 143.544C174.402 143.544 177.026 142.925 179.97 141.748C181.536 141.16 182.812 140.554 183.763 139.92C184.693 139.3 185.444 138.567 185.741 137.676ZM162.242 33.2778L162.253 33.2872L162.264 33.2962C165.499 35.9925 167.665 39.2883 168.782 43.2007L159.057 82.9597C157.576 88.1283 154.422 93.1639 149.525 98.0609C144.812 102.774 139.344 106.546 133.114 109.378L133.114 109.378L133.104 109.383C127.041 112.224 121.718 113.608 117.112 113.608C114.486 113.608 112.368 112.998 110.697 111.842C109.027 110.686 107.722 108.926 106.818 106.485C104.953 101.45 104 94.955 104 86.96C104 78.9011 106.342 70.3234 111.087 61.2139C115.826 52.1142 121.979 44.5451 129.545 38.4929L129.547 38.491C137.268 32.2763 145.404 29.208 153.976 29.208C156.308 29.208 159.055 30.4652 162.242 33.2778Z" fill="#176D76" stroke="white" stroke-width="2"/>
<path d="M312.764 105.167L312.838 104.972L312.827 104.763C312.621 100.85 310.969 97.3677 307.95 94.3401C304.951 90.9367 299.279 89.416 291.38 89.416C288.31 89.416 285.237 91.1124 282.177 94.1729C279.106 97.244 275.933 101.8 272.647 107.791L272.644 107.798L272.64 107.804C271.108 110.699 267.223 113.285 260.552 115.382C253.897 117.474 248.049 118.504 242.996 118.504C234.828 118.504 228.824 117.074 224.839 114.358C220.905 111.675 218.94 107.866 218.94 102.8C218.94 89.7534 222.623 77.5581 230.01 66.1943C237.63 54.5739 246.377 45.2629 256.244 38.2412C266.399 31.1529 274.24 27.768 279.86 27.768C282.552 27.768 285.059 28.4828 287.4 29.9236L287.424 29.9388L287.45 29.9524C289.702 31.1651 290.661 32.6871 290.668 34.5232L290.381 41.1245L290.38 41.1462V41.168C290.38 44.7675 291.18 47.7775 292.875 50.1081L292.892 50.1312L292.91 50.1532C294.926 52.6174 298.481 53.688 303.188 53.688C309.1 53.688 313.946 52.3075 317.626 49.4453L317.639 49.435L317.652 49.4242C321.319 46.3683 323.196 42.5421 323.196 38C323.196 26.8143 319.456 17.8856 311.918 11.3341C304.606 4.61991 295.333 1.28796 284.18 1.28796C266.336 1.28796 249.556 5.84822 233.854 14.959C218.154 24.0689 205.648 36.4787 196.345 52.1758C187.036 67.6918 182.38 84.5731 182.38 102.8C182.38 115.555 187.007 126.011 196.259 134.082L196.268 134.09C205.553 141.991 219.754 145.848 238.676 145.848C251.075 145.848 262.527 143.813 273.022 139.732C283.481 135.665 292.138 130.518 298.967 124.274L298.972 124.269L298.978 124.264C305.767 117.863 310.389 111.5 312.764 105.167Z" fill="white" stroke="#176D76" stroke-width="2"/>
<path d="M292.797 152.072C270.513 172.735 235.87 173.438 206.848 174.889C191.152 175.674 176.029 174.555 160.528 172.23C157.118 171.718 151.838 169.502 148.347 170.772C142.946 172.735 144.348 183.056 144.916 187.241C146.093 195.906 151.655 203.269 158.555 208.342C169.833 216.635 183.336 223.437 197.069 226.184" stroke="#176D76" stroke-width="3" stroke-linecap="round"/>
</svg>
