<svg width="426" height="357" viewBox="0 0 426 357" fill="none" xmlns="http://www.w3.org/2000/svg">
<path d="M6.54443 324.548C6.54443 323.423 6.73193 322.376 7.10693 321.407C7.48193 320.439 7.88818 319.532 8.32568 318.689C8.38818 318.564 8.48193 318.376 8.60693 318.126C8.76318 317.845 9.02881 317.282 9.40381 316.439C9.77881 315.564 10.2944 314.267 10.9507 312.548C11.6382 310.829 12.5444 308.439 13.6694 305.376C13.6382 305.001 13.6069 304.642 13.5757 304.298C13.5757 303.954 13.5757 303.626 13.5757 303.314C13.5757 302.032 13.7788 300.954 14.1851 300.079C14.6226 299.173 15.4351 298.298 16.6226 297.454L28.5288 272.61C28.9976 271.642 29.5132 270.61 30.0757 269.517C30.6382 268.392 31.2632 267.36 31.9507 266.423C32.6694 265.454 33.4507 264.657 34.2944 264.032C35.1694 263.376 36.1226 263.048 37.1538 263.048C37.9351 263.048 38.8101 263.517 39.7788 264.454C40.7476 265.36 41.7319 266.548 42.7319 268.017C43.7632 269.454 44.7788 271.064 45.7788 272.845C46.8101 274.595 47.7476 276.298 48.5913 277.954C49.4663 279.61 50.2319 281.126 50.8882 282.501C51.5444 283.845 52.0132 284.829 52.2944 285.454C53.8569 288.954 55.0288 291.626 55.8101 293.47C56.5913 295.282 57.2007 296.439 57.6382 296.939C59.0757 297.845 60.0757 298.907 60.6382 300.126C61.2007 301.314 61.4819 302.876 61.4819 304.814C62.3569 307.032 63.1382 309.267 63.8257 311.517C64.5444 313.735 65.3257 315.782 66.1694 317.657C66.7944 319.032 67.4351 320.173 68.0913 321.079C68.7476 321.954 69.3257 322.798 69.8257 323.61C70.3569 324.392 70.7788 325.22 71.0913 326.095C71.4351 326.939 71.6069 328.032 71.6069 329.376C71.6069 330.282 71.3882 330.97 70.9507 331.439C70.5132 331.939 69.9819 332.298 69.3569 332.517C68.7632 332.767 68.1538 332.907 67.5288 332.939C66.9038 332.97 66.4038 332.985 66.0288 332.985C65.0601 332.985 64.0913 332.439 63.1226 331.345C62.1538 330.251 61.2476 328.954 60.4038 327.454C59.5601 325.923 58.8101 324.36 58.1538 322.767C57.5288 321.173 57.0757 319.86 56.7944 318.829C56.4507 317.673 56.0913 316.454 55.7163 315.173C55.3726 313.892 55.0288 312.704 54.6851 311.61C54.3413 310.485 53.9819 309.532 53.6069 308.751C53.2632 307.97 52.9194 307.485 52.5757 307.298C52.0757 306.86 51.5132 306.579 50.8882 306.454C50.2632 306.298 49.4351 306.22 48.4038 306.22C46.6226 306.22 44.8257 306.22 43.0132 306.22C41.2007 306.189 39.3413 306.173 37.4351 306.173C35.5288 306.142 33.5444 306.126 31.4819 306.126C29.4507 306.095 27.2944 306.079 25.0132 306.079C24.3882 306.079 23.8726 306.142 23.4663 306.267C23.0913 306.36 22.7319 306.61 22.3882 307.017C22.0757 307.392 21.7476 307.954 21.4038 308.704C21.0913 309.454 20.7163 310.485 20.2788 311.798L16.5288 321.876C16.2476 322.876 15.9819 323.814 15.7319 324.689C15.4819 325.532 15.2476 326.126 15.0288 326.47C14.7476 326.939 14.4351 327.314 14.0913 327.595C13.7788 327.845 13.4507 328.032 13.1069 328.157C12.7632 328.282 12.4038 328.36 12.0288 328.392C11.6538 328.392 11.2788 328.392 10.9038 328.392C9.56006 328.392 8.49756 328.126 7.71631 327.595C6.93506 327.032 6.54443 326.017 6.54443 324.548ZM25.9507 297.548C28.9194 297.579 31.3569 297.61 33.2632 297.642C35.2007 297.673 36.7788 297.704 37.9976 297.735C39.2163 297.767 40.1694 297.798 40.8569 297.829C41.5444 297.829 42.1538 297.829 42.6851 297.829C43.0601 297.829 43.4194 297.829 43.7632 297.829C44.1069 297.798 44.4976 297.782 44.9351 297.782C45.4038 297.751 45.9351 297.72 46.5288 297.689C47.1538 297.657 47.9038 297.61 48.7788 297.548C48.3413 296.298 47.6694 294.72 46.7632 292.814C45.8882 290.907 44.9194 288.939 43.8569 286.907C42.8257 284.845 41.7944 282.845 40.7632 280.907C39.7319 278.97 38.8726 277.329 38.1851 275.985C37.5601 274.798 37.0601 274.204 36.6851 274.204C36.4976 274.204 36.1382 274.673 35.6069 275.61C35.0757 276.517 34.4507 277.689 33.7319 279.126C33.0444 280.564 32.3101 282.189 31.5288 284.001C30.7476 285.782 29.9819 287.532 29.2319 289.251C28.5132 290.97 27.8569 292.579 27.2632 294.079C26.6694 295.548 26.2319 296.704 25.9507 297.548ZM81.8101 323.048C81.7059 322.569 81.6538 322.048 81.6538 321.485C81.6538 320.923 81.6538 320.371 81.6538 319.829C81.6538 318.433 81.6226 317.058 81.5601 315.704C81.4976 314.329 81.4246 312.965 81.3413 311.61C81.2788 310.256 81.2163 308.892 81.1538 307.517C81.1121 306.142 81.1121 304.746 81.1538 303.329L81.4038 287.017C81.4038 285.642 81.6121 284.527 82.0288 283.673C82.4455 282.819 83.1955 282.392 84.2788 282.392C84.6746 282.392 85.0288 282.475 85.3413 282.642C85.6746 282.808 85.9559 283.027 86.1851 283.298C86.4142 283.548 86.5913 283.829 86.7163 284.142C86.8413 284.454 86.9038 284.756 86.9038 285.048V307.985C86.9038 310.256 86.9455 312.538 87.0288 314.829C87.133 317.1 87.3934 319.402 87.8101 321.735C87.8726 322.11 87.9663 322.423 88.0913 322.673C88.2371 322.902 88.3934 323.09 88.5601 323.235C88.7476 323.36 88.9455 323.444 89.1538 323.485C89.3621 323.527 89.5601 323.548 89.7476 323.548C90.0601 323.548 90.3205 323.485 90.5288 323.36C90.7371 323.215 90.8934 323.079 90.9976 322.954C91.1226 322.808 91.2476 322.673 91.3726 322.548C91.5184 322.402 91.6746 322.277 91.8413 322.173C92.008 322.048 92.2059 321.954 92.4351 321.892C92.6851 321.829 92.9767 321.798 93.3101 321.798C93.6851 321.798 94.008 321.881 94.2788 322.048C94.5496 322.194 94.7788 322.392 94.9663 322.642C95.1538 322.892 95.2892 323.173 95.3726 323.485C95.4767 323.798 95.5288 324.11 95.5288 324.423C95.5288 325.069 95.3309 325.663 94.9351 326.204C94.5601 326.725 94.0809 327.173 93.4976 327.548C92.9142 327.923 92.2788 328.215 91.5913 328.423C90.9038 328.631 90.258 328.735 89.6538 328.735C87.4871 328.777 85.7371 328.319 84.4038 327.36C83.0913 326.381 82.2267 324.944 81.8101 323.048ZM103.623 323.048C103.518 322.569 103.466 322.048 103.466 321.485C103.466 320.923 103.466 320.371 103.466 319.829C103.466 318.433 103.435 317.058 103.373 315.704C103.31 314.329 103.237 312.965 103.154 311.61C103.091 310.256 103.029 308.892 102.966 307.517C102.925 306.142 102.925 304.746 102.966 303.329L103.216 287.017C103.216 285.642 103.425 284.527 103.841 283.673C104.258 282.819 105.008 282.392 106.091 282.392C106.487 282.392 106.841 282.475 107.154 282.642C107.487 282.808 107.768 283.027 107.998 283.298C108.227 283.548 108.404 283.829 108.529 284.142C108.654 284.454 108.716 284.756 108.716 285.048V307.985C108.716 310.256 108.758 312.538 108.841 314.829C108.945 317.1 109.206 319.402 109.623 321.735C109.685 322.11 109.779 322.423 109.904 322.673C110.05 322.902 110.206 323.09 110.373 323.235C110.56 323.36 110.758 323.444 110.966 323.485C111.175 323.527 111.373 323.548 111.56 323.548C111.873 323.548 112.133 323.485 112.341 323.36C112.55 323.215 112.706 323.079 112.81 322.954C112.935 322.808 113.06 322.673 113.185 322.548C113.331 322.402 113.487 322.277 113.654 322.173C113.82 322.048 114.018 321.954 114.248 321.892C114.498 321.829 114.789 321.798 115.123 321.798C115.498 321.798 115.82 321.881 116.091 322.048C116.362 322.194 116.591 322.392 116.779 322.642C116.966 322.892 117.102 323.173 117.185 323.485C117.289 323.798 117.341 324.11 117.341 324.423C117.341 325.069 117.143 325.663 116.748 326.204C116.373 326.725 115.893 327.173 115.31 327.548C114.727 327.923 114.091 328.215 113.404 328.423C112.716 328.631 112.07 328.735 111.466 328.735C109.3 328.777 107.55 328.319 106.216 327.36C104.904 326.381 104.039 324.944 103.623 323.048ZM130.498 325.329C130.498 325.142 130.466 324.819 130.404 324.36C130.341 323.881 130.268 323.319 130.185 322.673C130.102 322.027 130.029 321.34 129.966 320.61C129.904 319.86 129.873 319.121 129.873 318.392C129.873 317.808 129.883 316.933 129.904 315.767C129.925 314.6 129.945 313.267 129.966 311.767C129.987 310.246 130.008 308.61 130.029 306.86C130.05 305.09 130.06 303.308 130.06 301.517H129.779L123.935 301.86C123.518 301.86 123.133 301.777 122.779 301.61C122.425 301.444 122.123 301.235 121.873 300.985C121.623 300.715 121.425 300.423 121.279 300.11C121.133 299.777 121.06 299.444 121.06 299.11C121.06 298.715 121.133 298.34 121.279 297.985C121.425 297.61 121.623 297.288 121.873 297.017C122.143 296.725 122.456 296.506 122.81 296.36C123.164 296.194 123.539 296.11 123.935 296.11L129.998 296.235C130.039 296.235 130.091 296.246 130.154 296.267C130.216 296.267 130.268 296.267 130.31 296.267C130.393 295.746 130.487 295.194 130.591 294.61C130.695 294.006 130.789 293.444 130.873 292.923C130.977 292.381 131.07 291.913 131.154 291.517C131.237 291.1 131.3 290.819 131.341 290.673C132.237 287.215 133.852 284.59 136.185 282.798C138.518 281.006 141.425 280.11 144.904 280.11C145.258 280.11 145.727 280.163 146.31 280.267C146.914 280.371 147.55 280.527 148.216 280.735C148.883 280.944 149.56 281.194 150.248 281.485C150.935 281.777 151.55 282.11 152.091 282.485C152.654 282.86 153.112 283.277 153.466 283.735C153.82 284.173 153.998 284.642 153.998 285.142C153.998 285.329 153.977 285.579 153.935 285.892C153.914 286.204 153.841 286.517 153.716 286.829C153.612 287.121 153.445 287.371 153.216 287.579C153.008 287.788 152.706 287.892 152.31 287.892C151.539 287.892 150.904 287.767 150.404 287.517C149.925 287.267 149.445 286.985 148.966 286.673C148.508 286.36 147.977 286.079 147.373 285.829C146.789 285.579 145.998 285.454 144.998 285.454C143.248 285.454 141.831 285.756 140.748 286.36C139.685 286.965 138.841 287.777 138.216 288.798C137.612 289.798 137.175 290.954 136.904 292.267C136.654 293.579 136.477 294.944 136.373 296.36C137.206 296.381 137.935 296.392 138.56 296.392C139.206 296.392 139.779 296.392 140.279 296.392C140.779 296.392 141.227 296.392 141.623 296.392C142.018 296.371 142.404 296.36 142.779 296.36C143.383 296.36 143.998 296.35 144.623 296.329C145.248 296.308 145.862 296.277 146.466 296.235H146.529C146.904 296.194 147.289 296.163 147.685 296.142C148.102 296.121 148.518 296.11 148.935 296.11C149.206 296.11 149.487 296.152 149.779 296.235C150.091 296.298 150.373 296.433 150.623 296.642C150.873 296.829 151.07 297.1 151.216 297.454C151.383 297.788 151.466 298.225 151.466 298.767C151.466 299.517 151.331 300.1 151.06 300.517C150.81 300.913 150.498 301.215 150.123 301.423C149.748 301.631 149.341 301.756 148.904 301.798C148.487 301.84 148.123 301.86 147.81 301.86C147.414 301.86 146.956 301.84 146.435 301.798C145.914 301.756 145.258 301.704 144.466 301.642C143.675 301.579 142.716 301.527 141.591 301.485C140.466 301.444 139.112 301.423 137.529 301.423C137.404 301.423 137.248 301.413 137.06 301.392C136.893 301.371 136.581 301.35 136.123 301.329C136.081 302.892 136.05 304.548 136.029 306.298C136.008 308.048 135.998 309.913 135.998 311.892C135.998 312.829 135.977 313.735 135.935 314.61C135.893 315.485 135.873 316.36 135.873 317.235C135.873 317.631 135.883 318.048 135.904 318.485C135.945 318.923 136.008 319.454 136.091 320.079C136.175 320.704 136.289 321.465 136.435 322.36C136.581 323.256 136.758 324.371 136.966 325.704C137.154 326.892 137.029 327.725 136.591 328.204C136.154 328.663 135.56 328.892 134.81 328.892C133.956 328.892 133.248 328.829 132.685 328.704C132.143 328.6 131.706 328.413 131.373 328.142C131.06 327.871 130.831 327.506 130.685 327.048C130.56 326.59 130.498 326.017 130.498 325.329ZM160.544 303.642C160.544 301.923 160.669 300.11 160.919 298.204C161.169 296.267 161.513 294.329 161.951 292.392C162.388 290.423 162.873 288.485 163.404 286.579C163.966 284.673 164.56 282.876 165.185 281.189C165.935 279.189 166.998 277.126 168.373 275.001C169.779 272.876 171.466 270.954 173.435 269.235C175.435 267.485 177.701 266.048 180.232 264.923C182.794 263.798 185.607 263.235 188.669 263.235C191.357 263.235 194.013 263.626 196.638 264.407C199.294 265.189 201.669 266.345 203.763 267.876C205.888 269.407 207.607 271.298 208.919 273.548C210.232 275.767 210.888 278.345 210.888 281.282C210.888 281.814 210.826 282.439 210.701 283.157C210.576 283.845 210.357 284.517 210.044 285.173C209.763 285.798 209.357 286.329 208.826 286.767C208.294 287.204 207.607 287.423 206.763 287.423C205.794 287.423 205.044 287.157 204.513 286.626C204.013 286.064 203.638 285.376 203.388 284.564C203.169 283.751 203.029 282.86 202.966 281.892C202.935 280.892 202.919 279.954 202.919 279.079C202.919 278.017 202.466 277.017 201.56 276.079C200.654 275.11 199.513 274.267 198.138 273.548C196.763 272.829 195.263 272.267 193.638 271.86C192.013 271.423 190.498 271.204 189.091 271.204C186.466 271.204 184.138 271.814 182.107 273.032C180.076 274.251 178.31 275.845 176.81 277.814C175.31 279.782 174.044 281.985 173.013 284.423C172.013 286.86 171.201 289.298 170.576 291.735C169.951 294.142 169.498 296.439 169.216 298.626C168.966 300.814 168.841 302.61 168.841 304.017C168.841 306.798 169.435 309.282 170.623 311.47C171.81 313.657 173.373 315.517 175.31 317.048C177.248 318.548 179.435 319.704 181.873 320.517C184.31 321.298 186.794 321.689 189.326 321.689C190.576 321.689 192.044 321.642 193.732 321.548C195.419 321.454 197.138 321.298 198.888 321.079C200.638 320.829 202.341 320.501 203.998 320.095C205.685 319.689 207.123 319.189 208.31 318.595C208.81 318.345 209.232 318.048 209.576 317.704C209.919 317.329 210.263 316.985 210.607 316.673C210.982 316.329 211.388 316.048 211.826 315.829C212.294 315.579 212.873 315.454 213.56 315.454C214.904 315.454 215.966 315.907 216.748 316.814C217.56 317.72 217.966 318.829 217.966 320.142C217.966 321.017 217.857 321.735 217.638 322.298C217.419 322.829 217.044 323.314 216.513 323.751C215.326 324.751 213.685 325.61 211.591 326.329C209.529 327.048 207.279 327.642 204.841 328.11C202.404 328.579 199.919 328.923 197.388 329.142C194.888 329.36 192.591 329.47 190.498 329.47C188.06 329.47 185.623 329.314 183.185 329.001C180.779 328.689 178.466 328.173 176.248 327.454C174.029 326.704 171.951 325.704 170.013 324.454C168.107 323.173 166.451 321.579 165.044 319.673C163.638 317.735 162.529 315.454 161.716 312.829C160.935 310.204 160.544 307.142 160.544 303.642ZM224.935 311.954C224.935 308.725 225.456 305.985 226.498 303.735C227.539 301.485 228.904 299.663 230.591 298.267C232.3 296.85 234.227 295.829 236.373 295.204C238.539 294.558 240.748 294.235 242.998 294.235C245.602 294.235 247.935 294.663 249.998 295.517C252.081 296.371 253.841 297.6 255.279 299.204C256.716 300.808 257.82 302.756 258.591 305.048C259.362 307.319 259.748 309.871 259.748 312.704C259.748 314.35 259.529 315.902 259.091 317.36C258.654 318.819 258.05 320.173 257.279 321.423C256.508 322.652 255.581 323.756 254.498 324.735C253.435 325.715 252.268 326.558 250.998 327.267C249.727 327.954 248.383 328.475 246.966 328.829C245.55 329.204 244.112 329.392 242.654 329.392C241.07 329.392 239.529 329.142 238.029 328.642C236.55 328.163 235.154 327.496 233.841 326.642C232.529 325.788 231.32 324.798 230.216 323.673C229.133 322.527 228.195 321.308 227.404 320.017C226.633 318.725 226.029 317.392 225.591 316.017C225.154 314.642 224.935 313.288 224.935 311.954ZM230.341 311.173C230.341 312.715 230.675 314.267 231.341 315.829C232.008 317.371 232.883 318.767 233.966 320.017C235.07 321.267 236.32 322.288 237.716 323.079C239.133 323.85 240.57 324.235 242.029 324.235C243.612 324.235 245.143 323.965 246.623 323.423C248.123 322.881 249.435 322.09 250.56 321.048C251.706 320.006 252.623 318.735 253.31 317.235C253.998 315.735 254.341 314.027 254.341 312.11C254.341 310.235 254.081 308.527 253.56 306.985C253.06 305.423 252.362 304.079 251.466 302.954C250.57 301.829 249.498 300.965 248.248 300.36C246.998 299.735 245.643 299.423 244.185 299.423C242.56 299.423 240.925 299.683 239.279 300.204C237.633 300.704 236.143 301.454 234.81 302.454C233.498 303.433 232.425 304.652 231.591 306.11C230.758 307.569 230.341 309.256 230.341 311.173ZM268.748 310.548C268.748 309.902 268.768 309.173 268.81 308.36C268.852 307.548 268.914 306.704 268.998 305.829C269.081 304.954 269.175 304.069 269.279 303.173C269.404 302.256 269.539 301.381 269.685 300.548C269.831 299.694 269.987 298.913 270.154 298.204C270.341 297.475 270.529 296.85 270.716 296.329C270.945 295.767 271.31 295.308 271.81 294.954C272.31 294.579 272.977 294.392 273.81 294.392C274.56 294.392 275.154 294.663 275.591 295.204C276.05 295.746 276.279 296.392 276.279 297.142C276.279 297.267 276.175 297.663 275.966 298.329C275.779 298.975 275.56 299.85 275.31 300.954C275.081 302.038 274.862 303.329 274.654 304.829C274.466 306.308 274.373 307.933 274.373 309.704C274.373 310.392 274.404 311.235 274.466 312.235C274.55 313.235 274.695 314.288 274.904 315.392C275.112 316.475 275.404 317.569 275.779 318.673C276.154 319.756 276.654 320.735 277.279 321.61C277.925 322.485 278.706 323.194 279.623 323.735C280.539 324.277 281.633 324.548 282.904 324.548C283.987 324.548 284.987 324.381 285.904 324.048C286.82 323.715 287.654 323.288 288.404 322.767C289.175 322.225 289.862 321.621 290.466 320.954C291.091 320.288 291.643 319.621 292.123 318.954C292.623 318.288 293.05 317.663 293.404 317.079C293.779 316.496 294.102 316.006 294.373 315.61C294.498 314.402 294.591 313.34 294.654 312.423C294.716 311.485 294.758 310.631 294.779 309.86C294.82 309.09 294.841 308.371 294.841 307.704C294.862 307.017 294.873 306.319 294.873 305.61C294.873 304.881 294.862 304.11 294.841 303.298C294.841 302.465 294.841 301.517 294.841 300.454V296.735C294.841 296.298 294.935 295.933 295.123 295.642C295.331 295.35 295.581 295.11 295.873 294.923C296.164 294.735 296.487 294.61 296.841 294.548C297.195 294.465 297.518 294.423 297.81 294.423C298.06 294.423 298.331 294.465 298.623 294.548C298.914 294.631 299.185 294.756 299.435 294.923C299.685 295.09 299.893 295.319 300.06 295.61C300.227 295.881 300.31 296.204 300.31 296.579L300.248 326.235C300.248 327.298 300.039 328.017 299.623 328.392C299.206 328.746 298.57 328.923 297.716 328.923C296.945 328.923 296.341 328.86 295.904 328.735C295.487 328.631 295.175 328.423 294.966 328.11C294.779 327.798 294.664 327.371 294.623 326.829C294.581 326.288 294.56 325.59 294.56 324.735V322.61C294.018 323.59 293.404 324.527 292.716 325.423C292.05 326.298 291.268 327.069 290.373 327.735C289.477 328.402 288.445 328.933 287.279 329.329C286.112 329.725 284.779 329.923 283.279 329.923C281.112 329.923 279.248 329.59 277.685 328.923C276.143 328.277 274.831 327.423 273.748 326.36C272.685 325.277 271.82 324.048 271.154 322.673C270.508 321.298 269.998 319.892 269.623 318.454C269.268 317.017 269.029 315.61 268.904 314.235C268.8 312.86 268.748 311.631 268.748 310.548ZM311.591 324.548C311.591 324.006 311.623 323.444 311.685 322.86C311.748 322.277 311.779 321.715 311.779 321.173C311.779 319.902 311.716 318.579 311.591 317.204C311.487 316.1 311.425 314.944 311.404 313.735C311.404 312.527 311.445 311.465 311.529 310.548L312.56 298.204C312.643 297.204 312.893 296.413 313.31 295.829C313.748 295.225 314.518 294.923 315.623 294.923C316.081 294.923 316.477 295.006 316.81 295.173C317.164 295.319 317.456 295.517 317.685 295.767C317.935 296.017 318.133 296.298 318.279 296.61C318.425 296.902 318.529 297.194 318.591 297.485C319.445 296.84 320.383 296.288 321.404 295.829C322.425 295.371 323.477 294.996 324.56 294.704C325.643 294.413 326.737 294.204 327.841 294.079C328.945 293.933 330.018 293.86 331.06 293.86C331.935 293.86 332.935 293.923 334.06 294.048C335.185 294.152 336.248 294.392 337.248 294.767C338.248 295.142 339.091 295.683 339.779 296.392C340.466 297.1 340.81 298.058 340.81 299.267C340.81 300.121 340.539 300.819 339.998 301.36C339.477 301.881 338.779 302.142 337.904 302.142C337.237 302.142 336.716 301.996 336.341 301.704C335.966 301.392 335.633 301.048 335.341 300.673C335.216 300.527 335.07 300.371 334.904 300.204C334.737 300.038 334.498 299.881 334.185 299.735C333.893 299.59 333.508 299.475 333.029 299.392C332.55 299.308 331.935 299.267 331.185 299.267C328.831 299.267 326.789 299.517 325.06 300.017C323.331 300.496 321.904 301.256 320.779 302.298C319.654 303.34 318.82 304.683 318.279 306.329C317.737 307.954 317.466 309.913 317.466 312.204C317.466 313.058 317.477 313.871 317.498 314.642C317.518 315.392 317.55 316.142 317.591 316.892C317.654 317.642 317.716 318.402 317.779 319.173C317.841 319.944 317.904 320.767 317.966 321.642C318.008 322.308 318.07 322.996 318.154 323.704C318.237 324.413 318.279 325.1 318.279 325.767C318.279 325.954 318.227 326.215 318.123 326.548C318.018 326.881 317.841 327.215 317.591 327.548C317.362 327.86 317.05 328.142 316.654 328.392C316.279 328.621 315.81 328.735 315.248 328.735C314.518 328.735 313.914 328.652 313.435 328.485C312.977 328.319 312.602 328.069 312.31 327.735C312.039 327.381 311.852 326.944 311.748 326.423C311.643 325.881 311.591 325.256 311.591 324.548ZM349.716 323.673C349.716 323.402 349.831 323.038 350.06 322.579C350.289 322.1 350.57 321.673 350.904 321.298C351.258 320.923 351.643 320.683 352.06 320.579C352.477 320.454 352.873 320.6 353.248 321.017C353.935 321.788 354.55 322.392 355.091 322.829C355.654 323.267 356.237 323.59 356.841 323.798C357.466 324.006 358.143 324.131 358.873 324.173C359.623 324.215 360.518 324.235 361.56 324.235C362.81 324.235 364.081 324.1 365.373 323.829C366.685 323.538 367.883 323.204 368.966 322.829C370.05 322.433 370.935 322.027 371.623 321.61C372.31 321.194 372.654 320.86 372.654 320.61C372.654 320.277 372.435 319.933 371.998 319.579C371.581 319.225 371.008 318.892 370.279 318.579C369.55 318.267 368.695 317.975 367.716 317.704C366.737 317.413 365.695 317.173 364.591 316.985C363.3 316.819 361.977 316.631 360.623 316.423C359.289 316.215 357.987 315.944 356.716 315.61C355.445 315.277 354.248 314.881 353.123 314.423C351.998 313.944 351.008 313.35 350.154 312.642C349.3 311.933 348.623 311.09 348.123 310.11C347.643 309.131 347.404 307.985 347.404 306.673C347.404 305.256 347.643 303.944 348.123 302.735C348.623 301.527 349.289 300.423 350.123 299.423C350.977 298.423 351.966 297.538 353.091 296.767C354.237 295.996 355.466 295.35 356.779 294.829C358.091 294.308 359.456 293.913 360.873 293.642C362.289 293.371 363.695 293.235 365.091 293.235C366.55 293.235 367.873 293.423 369.06 293.798C370.268 294.152 371.289 294.631 372.123 295.235C372.956 295.819 373.602 296.496 374.06 297.267C374.518 298.038 374.748 298.84 374.748 299.673C374.748 300.194 374.737 300.788 374.716 301.454C374.695 302.121 374.602 302.756 374.435 303.36C374.289 303.944 374.039 304.444 373.685 304.86C373.331 305.256 372.82 305.454 372.154 305.454C371.737 305.454 371.414 305.371 371.185 305.204C370.977 305.017 370.82 304.798 370.716 304.548C370.612 304.298 370.55 304.027 370.529 303.735C370.508 303.423 370.498 303.142 370.498 302.892C370.498 302.079 370.352 301.423 370.06 300.923C369.789 300.423 369.383 300.027 368.841 299.735C368.3 299.444 367.633 299.246 366.841 299.142C366.07 299.038 365.185 298.985 364.185 298.985C363.498 298.985 362.748 299.079 361.935 299.267C361.123 299.454 360.3 299.715 359.466 300.048C358.654 300.36 357.852 300.746 357.06 301.204C356.289 301.663 355.602 302.173 354.998 302.735C354.414 303.277 353.935 303.85 353.56 304.454C353.206 305.058 353.029 305.683 353.029 306.329C353.029 307.142 353.352 307.819 353.998 308.36C354.643 308.881 355.498 309.319 356.56 309.673C357.623 310.027 358.82 310.329 360.154 310.579C361.508 310.808 362.883 311.027 364.279 311.235C366.008 311.506 367.706 311.85 369.373 312.267C371.06 312.663 372.57 313.204 373.904 313.892C375.237 314.579 376.31 315.465 377.123 316.548C377.935 317.61 378.341 318.933 378.341 320.517C378.341 321.642 378.018 322.652 377.373 323.548C376.727 324.423 375.883 325.204 374.841 325.892C373.82 326.558 372.664 327.131 371.373 327.61C370.081 328.09 368.779 328.475 367.466 328.767C366.175 329.079 364.935 329.308 363.748 329.454C362.56 329.6 361.56 329.673 360.748 329.673C360.123 329.673 359.414 329.642 358.623 329.579C357.831 329.538 357.018 329.444 356.185 329.298C355.373 329.152 354.581 328.944 353.81 328.673C353.039 328.402 352.341 328.048 351.716 327.61C351.112 327.152 350.623 326.61 350.248 325.985C349.893 325.34 349.716 324.569 349.716 323.673ZM387.123 313.735C387.123 310.777 387.55 308.1 388.404 305.704C389.258 303.308 390.518 301.267 392.185 299.579C393.852 297.892 395.893 296.59 398.31 295.673C400.748 294.756 403.55 294.298 406.716 294.298C407.8 294.298 408.904 294.413 410.029 294.642C411.175 294.871 412.279 295.204 413.341 295.642C414.404 296.079 415.404 296.621 416.341 297.267C417.3 297.913 418.133 298.663 418.841 299.517C419.55 300.35 420.102 301.288 420.498 302.329C420.914 303.35 421.123 304.465 421.123 305.673C421.123 306.61 420.914 307.288 420.498 307.704C420.081 308.121 419.529 308.413 418.841 308.579C418.237 308.746 417.529 308.902 416.716 309.048C415.925 309.173 415.029 309.392 414.029 309.704L393.123 316.204C393.393 317.475 393.831 318.558 394.435 319.454C395.06 320.35 395.779 321.1 396.591 321.704C397.425 322.308 398.32 322.788 399.279 323.142C400.258 323.496 401.237 323.767 402.216 323.954C403.195 324.121 404.143 324.235 405.06 324.298C405.998 324.34 406.841 324.36 407.591 324.36C408.779 324.36 409.956 324.225 411.123 323.954C412.289 323.683 413.362 323.381 414.341 323.048C415.32 322.715 416.175 322.413 416.904 322.142C417.654 321.871 418.195 321.735 418.529 321.735C419.633 321.735 420.435 321.985 420.935 322.485C421.456 322.985 421.716 323.767 421.716 324.829C421.716 325.517 421.362 326.11 420.654 326.61C419.966 327.11 419.07 327.527 417.966 327.86C416.862 328.194 415.633 328.454 414.279 328.642C412.945 328.85 411.633 328.996 410.341 329.079C409.07 329.183 407.904 329.246 406.841 329.267C405.779 329.308 404.977 329.329 404.435 329.329C402.998 329.329 401.56 329.142 400.123 328.767C398.706 328.413 397.352 327.902 396.06 327.235C394.789 326.569 393.602 325.767 392.498 324.829C391.414 323.871 390.466 322.819 389.654 321.673C388.862 320.506 388.237 319.256 387.779 317.923C387.341 316.59 387.123 315.194 387.123 313.735ZM392.966 311.298C393.945 311.006 395.07 310.673 396.341 310.298C397.612 309.923 398.945 309.527 400.341 309.11C401.758 308.673 403.185 308.225 404.623 307.767C406.081 307.308 407.477 306.86 408.81 306.423C410.164 305.965 411.404 305.538 412.529 305.142C413.675 304.725 414.633 304.34 415.404 303.985C415.175 303.194 414.789 302.517 414.248 301.954C413.706 301.371 413.018 300.902 412.185 300.548C411.373 300.173 410.425 299.902 409.341 299.735C408.258 299.548 407.07 299.454 405.779 299.454C405.195 299.454 404.498 299.538 403.685 299.704C402.893 299.871 402.05 300.142 401.154 300.517C400.279 300.871 399.383 301.35 398.466 301.954C397.57 302.558 396.748 303.298 395.998 304.173C395.248 305.048 394.602 306.079 394.06 307.267C393.518 308.433 393.154 309.777 392.966 311.298Z" fill="#F8F9FA"/>
<path d="M186.707 138.455L186.797 138.185L186.731 137.908C185.796 133.979 185.135 129.574 184.752 124.688L205.727 41.075C206.327 39.2625 206.63 37.4401 206.63 35.6112C206.63 33.5846 205.242 31.7885 203.05 30.1944C201.108 28.7814 199.277 27.902 197.59 27.7302C194.12 21.6994 189.806 16.7609 184.642 12.9321C179.584 8.84924 174.492 6.00083 169.365 4.42054C164.34 2.68208 160.19 1.77917 156.958 1.77917C140.836 1.77917 126.152 6.05522 112.932 14.6087C99.7303 22.9576 89.3422 34.1248 81.775 48.0949L81.7727 48.0993C74.3985 61.8773 70.7103 76.6316 70.7103 92.3472C70.7103 109.011 74.9734 121.344 83.719 129.096L83.719 129.096L83.7274 129.103C92.5721 136.768 103.566 140.579 116.638 140.579C121.843 140.579 128.526 138.686 136.635 135.018L136.644 135.014C143.577 131.789 149.152 127.876 153.332 123.257C152.971 125.913 152.79 128.57 152.79 131.227C152.79 135.527 154.346 138.845 157.55 140.983C160.88 143.269 166.125 144.323 173.086 144.323C175.368 144.323 177.992 143.704 180.936 142.528C182.503 141.939 183.778 141.333 184.729 140.699C185.659 140.079 186.41 139.346 186.707 138.455ZM163.209 34.057L163.219 34.0664L163.23 34.0754C166.466 36.7717 168.631 40.0675 169.749 43.9799L160.024 83.7388C158.543 88.9075 155.388 93.9431 150.491 98.8401C145.778 103.553 140.31 107.325 134.081 110.157L134.08 110.157L134.07 110.162C128.008 113.003 122.684 114.387 118.078 114.387C115.452 114.387 113.334 113.778 111.664 112.621C109.993 111.465 108.688 109.705 107.784 107.264C105.92 102.23 104.966 95.7341 104.966 87.7392C104.966 79.6803 107.309 71.1025 112.053 61.9931C116.793 52.8934 122.946 45.3243 130.511 39.2721L130.513 39.2702C138.235 33.0555 146.371 29.9872 154.942 29.9872C157.275 29.9872 160.021 31.2443 163.209 34.057Z" fill="#176D76" stroke="white" stroke-width="2"/>
<path d="M313.731 105.946L313.804 105.751L313.793 105.543C313.587 101.629 311.935 98.1469 308.917 95.1192C305.917 91.7159 300.246 90.1951 292.346 90.1951C289.276 90.1951 286.204 91.8915 283.143 94.952C280.072 98.0232 276.899 102.579 273.614 108.57L273.61 108.577L273.607 108.583C272.074 111.478 268.189 114.065 261.518 116.161C254.863 118.253 249.016 119.283 243.962 119.283C235.794 119.283 229.79 117.854 225.806 115.137C221.871 112.454 219.906 108.645 219.906 103.579C219.906 90.5328 223.59 78.3377 230.975 66.9741C238.596 55.3534 247.343 46.0422 257.211 39.0204C267.365 31.932 275.207 28.5471 280.826 28.5471C283.518 28.5471 286.025 29.262 288.366 30.7028L288.391 30.7179L288.416 30.7316C290.668 31.9443 291.627 33.4663 291.634 35.3024L291.347 41.9037L291.346 41.9254V41.9471C291.346 45.5467 292.147 48.5567 293.842 50.8873L293.858 50.9103L293.876 50.9324C295.892 53.3966 299.447 54.4671 304.154 54.4671C310.066 54.4671 314.912 53.0867 318.592 50.2245L318.606 50.2141L318.618 50.2034C322.286 47.1475 324.162 43.3213 324.162 38.7791C324.162 27.5935 320.423 18.6648 312.885 12.1133C305.573 5.39909 296.299 2.06714 285.146 2.06714C267.303 2.06714 250.522 6.6274 234.82 15.7382C219.12 24.8481 206.614 37.2579 197.311 52.9552C188.002 68.4711 183.346 85.3523 183.346 103.579C183.346 116.334 187.973 126.79 197.225 134.861L197.234 134.869C206.519 142.771 220.721 146.627 239.642 146.627C252.041 146.627 263.494 144.593 273.989 140.511C284.447 136.444 293.104 131.297 299.933 125.053L299.939 125.048L299.944 125.043C306.733 118.642 311.356 112.279 313.731 105.946Z" fill="white" stroke="#176D76" stroke-width="2"/>
<path d="M293.763 152.851C271.48 173.514 236.836 174.217 207.814 175.668C192.119 176.453 176.995 175.334 161.494 173.009C158.085 172.498 152.805 170.281 149.313 171.551C143.913 173.515 145.314 183.836 145.882 188.02C147.059 196.685 152.622 204.048 159.521 209.121C170.8 217.415 184.303 224.217 198.035 226.963" stroke="white" stroke-width="3" stroke-linecap="round"/>
</svg>
