<svg width="86" height="76" viewBox="0 0 86 76" fill="none" xmlns="http://www.w3.org/2000/svg">
<path d="M40.2225 46.0175L40.3107 45.7498L40.2461 45.4754C39.9637 44.2753 39.76 42.9238 39.6389 41.4176L46.3014 14.5503C46.5088 13.9087 46.6153 13.2578 46.6153 12.6007C46.6153 11.6194 45.9529 10.8637 45.1968 10.3074C44.6502 9.90529 44.0718 9.58333 43.4798 9.44389C42.3614 7.55301 40.9822 5.98186 39.3377 4.74596C37.6782 3.39271 35.9845 2.4284 34.2554 1.88737C32.628 1.31863 31.2227 1 30.0806 1C24.8059 1 19.9896 2.41724 15.6573 5.25191C11.3447 8.01163 7.95121 11.7042 5.48338 16.3131L5.48336 16.3131L5.48104 16.3175C3.07547 20.8643 1.87195 25.7364 1.87195 30.9194C1.87195 36.399 3.25743 40.6052 6.24889 43.2875L6.24885 43.2875L6.25724 43.2949C9.21935 45.8918 12.8944 47.1695 17.2117 47.1695C19.02 47.1695 21.2601 46.5103 23.8784 45.312L23.8784 45.3121L23.888 45.3076C25.5008 44.5487 26.9044 43.6682 28.0861 42.6601C28.075 42.9309 28.0695 43.2018 28.0695 43.4728C28.0695 45.0378 28.6413 46.34 29.8832 47.1805C31.122 48.0391 32.9706 48.3783 35.2282 48.3783C36.0735 48.3783 36.9996 48.1485 37.9831 47.7515C38.5049 47.553 38.9634 47.3363 39.3263 47.0916C39.6695 46.8601 40.0579 46.5169 40.2225 46.0175ZM31.6208 12.6028L31.6314 12.6122L31.6422 12.6213C32.5276 13.3677 33.127 14.2624 33.4583 15.3208L30.4001 27.9687C29.964 29.4992 29.0297 31.025 27.531 32.5411C26.0854 34.0034 24.4083 35.1744 22.493 36.0551L22.493 36.055L22.4823 36.0601C20.6032 36.9511 19.0066 37.3585 17.6713 37.3585C16.9425 37.3585 16.4114 37.1888 16.0158 36.9117C15.62 36.6345 15.2773 36.192 15.0254 35.504C14.4669 33.9786 14.1671 31.9671 14.1671 29.4316C14.1671 26.9607 14.8769 24.2968 16.3542 21.4274C17.8267 18.5675 19.7323 16.199 22.0691 14.3079L22.0714 14.306C24.4336 12.3827 26.882 11.4619 29.4372 11.4619C29.9354 11.4619 30.6542 11.74 31.6208 12.6028Z" fill="#176D76" stroke="white" stroke-width="2"/>
<path d="M80.7566 35.5442L80.8284 35.3508L80.8176 35.1447C80.7427 33.7048 80.1394 32.4338 79.0818 31.3548C77.9145 30.03 75.8378 29.5472 73.2926 29.5472C72.0482 29.5472 70.9026 30.2406 69.8697 31.2855C68.8254 32.342 67.777 33.8756 66.7143 35.8359L66.7108 35.8424L66.7075 35.8488C66.3494 36.533 65.3392 37.2977 63.2459 37.9632C61.1663 38.6244 59.3721 38.9391 57.8498 38.9391C55.3045 38.9391 53.5503 38.485 52.4427 37.721C51.3838 36.9907 50.8527 35.9761 50.8527 34.5457C50.8527 30.4672 51.9886 26.6558 54.278 23.0922C56.6702 19.4022 59.4049 16.4622 62.4748 14.2516C65.702 11.9731 68.0517 10.9968 69.6157 10.9968C70.3441 10.9968 71.0195 11.1903 71.661 11.5896L71.6857 11.605L71.7112 11.6189C72.2586 11.917 72.3796 12.2041 72.3843 12.4895L72.2935 14.6033L72.2926 14.6247V14.6462C72.2926 15.9034 72.569 17.0266 73.216 17.9266L73.2326 17.9497L73.2504 17.9717C74.0891 19.0087 75.4881 19.3657 77.0613 19.3657C79.0542 19.3657 80.7646 18.8942 82.0919 17.8498L82.1052 17.8394L82.1181 17.8285C83.4316 16.7211 84.1281 15.3009 84.1281 13.6233C84.1281 9.85199 82.8748 6.77478 80.3057 4.51239C77.8308 2.2167 74.7 1.09277 70.9945 1.09277C65.1749 1.09277 59.6998 2.59907 54.586 5.60082C49.4739 8.60155 45.3996 12.6919 42.3729 17.8579C39.3397 22.9728 37.8221 28.5419 37.8221 34.5457C37.8221 38.8461 39.3738 42.4105 42.4808 45.1523L42.4807 45.1524L42.49 45.1603C45.6312 47.8648 50.3576 49.122 56.471 49.122C60.5054 49.122 64.2466 48.4521 67.6838 47.0999C71.0842 45.7621 73.9242 44.0593 76.1777 41.975L76.1833 41.9698L76.1889 41.9645C78.4023 39.8533 79.9516 37.7158 80.7566 35.5442Z" fill="white" stroke="#176D76" stroke-width="2"/>
<path d="M73.7447 50.4541C66.6324 57.1257 55.5752 57.3526 46.3122 57.8211C41.3027 58.0745 36.4758 57.7133 31.5282 56.9626C30.4401 56.7975 28.7548 56.0818 27.6405 56.4917C25.9167 57.1259 26.3641 60.4582 26.5454 61.8093C26.921 64.6071 28.6964 66.9845 30.8985 68.6224C34.4984 71.3001 38.808 73.4963 43.1911 74.3831" stroke="white" stroke-width="2" stroke-linecap="round"/>
</svg>
